<svg width="1200" height="751" viewBox="0 0 1200 751" fill="none" xmlns="http://www.w3.org/2000/svg">
<g clip-path="url(#clip0_2004_18)">
<rect width="1200" height="751" fill="white"/>
<g opacity="0.8" filter="url(#filter0_d_2004_18)">
<ellipse cx="169.742" cy="267.738" rx="169.742" ry="267.738" transform="matrix(0.964386 0.264499 -0.253244 0.967402 513.606 38)" fill="white"/>
<path d="M764.518 384.423C746.159 454.552 711.664 512.701 671.197 550.129C630.635 587.644 585.167 603.507 543.976 592.21C502.785 580.913 471.158 543.905 454.356 490.656C437.593 437.533 436.124 369.52 454.482 299.391C472.841 229.261 507.336 171.112 547.803 133.685C588.365 96.1688 633.833 80.3059 675.024 91.6032C716.215 102.901 747.842 139.908 764.644 193.157C781.407 246.28 782.876 314.293 764.518 384.423Z" stroke="#950002" stroke-width="18" style="mix-blend-mode:darken"/>
</g>
<path d="M179.984 180V178.704L182.192 178.368C182.768 178.304 183.136 178.128 183.296 177.84C183.456 177.52 183.536 176.992 183.536 176.256V168.96C182.672 169.696 181.616 170.336 180.368 170.88C179.152 171.424 177.648 171.696 175.856 171.696C173.456 171.696 171.6 171.072 170.288 169.824C169.008 168.544 168.368 166.656 168.368 164.16V159.408C168.368 158.608 168.288 158.064 168.128 157.776C167.968 157.456 167.648 157.264 167.168 157.2L164.72 156.816L164.96 155.52H176.48V156.816L174.08 157.2C173.568 157.264 173.232 157.456 173.072 157.776C172.912 158.064 172.832 158.592 172.832 159.36V164.448C172.832 166.208 173.232 167.52 174.032 168.384C174.864 169.216 176.048 169.632 177.584 169.632C178.8 169.632 179.936 169.424 180.992 169.008C182.048 168.56 182.896 168.016 183.536 167.376V159.168C183.536 158.432 183.456 157.936 183.296 157.68C183.136 157.392 182.768 157.216 182.192 157.152L179.888 156.768L180.128 155.52H191.648V156.816L189.392 157.152C188.816 157.216 188.432 157.392 188.24 157.68C188.08 157.968 188 158.496 188 159.264V176.304C188 177.008 188.08 177.504 188.24 177.792C188.432 178.08 188.816 178.256 189.392 178.32L191.744 178.704V180H179.984ZM207.344 180.672C205.104 180.672 203.152 180.192 201.488 179.232C199.824 178.24 198.528 176.816 197.6 174.96C196.704 173.072 196.256 170.816 196.256 168.192C196.256 165.376 196.736 162.976 197.696 160.992C198.688 159.008 200.048 157.488 201.776 156.432C203.504 155.376 205.536 154.848 207.872 154.848C209.632 154.848 211.152 155.2 212.432 155.904C213.744 156.608 214.752 157.6 215.456 158.88C216.192 160.16 216.56 161.664 216.56 163.392C216.56 163.968 216.528 164.56 216.464 165.168C216.4 165.744 216.304 166.352 216.176 166.992H201.056C201.024 169.328 201.328 171.264 201.968 172.8C202.608 174.304 203.504 175.424 204.656 176.16C205.808 176.896 207.152 177.264 208.688 177.264C210 177.264 211.232 177.04 212.384 176.592C213.568 176.144 214.72 175.36 215.84 174.24L216.8 175.152C215.616 177.04 214.208 178.432 212.576 179.328C210.976 180.224 209.232 180.672 207.344 180.672ZM201.104 165.36H211.904C211.968 165.072 212 164.752 212 164.4C212.032 164.016 212.048 163.616 212.048 163.2C212.048 160.736 211.664 158.976 210.896 157.92C210.128 156.864 208.96 156.336 207.392 156.336C206.144 156.336 205.072 156.656 204.176 157.296C203.312 157.904 202.624 158.88 202.112 160.224C201.6 161.536 201.264 163.248 201.104 165.36ZM226.385 180V178.704L228.833 178.32C229.345 178.256 229.681 178.064 229.841 177.744C230.001 177.424 230.081 176.848 230.081 176.016V157.056H228.257C227.265 157.056 226.449 157.136 225.809 157.296C225.169 157.456 224.625 157.728 224.177 158.112C223.761 158.496 223.393 159.024 223.073 159.696C222.785 160.336 222.481 161.152 222.161 162.144L221.441 164.448L219.905 164.208L221.201 155.52H243.425L244.721 164.208L243.185 164.448L242.417 162.048C242.065 160.768 241.665 159.776 241.217 159.072C240.769 158.336 240.177 157.824 239.441 157.536C238.705 157.216 237.665 157.056 236.321 157.056H234.545V176.208C234.545 176.944 234.625 177.456 234.785 177.744C234.945 178.032 235.265 178.208 235.745 178.272L238.433 178.752V180H226.385ZM248.479 180V178.704L250.783 178.32C251.295 178.256 251.631 178.064 251.791 177.744C251.951 177.424 252.031 176.848 252.031 176.016V159.408C252.031 158.64 251.951 158.096 251.791 157.776C251.663 157.456 251.327 157.264 250.783 157.2L248.383 156.816L248.623 155.52H260.143C261.967 155.52 263.551 155.696 264.895 156.048C266.271 156.4 267.327 156.992 268.063 157.824C268.831 158.624 269.215 159.712 269.215 161.088C269.215 162.72 268.607 164.08 267.391 165.168C266.207 166.224 264.623 166.864 262.639 167.088V167.136C264.207 167.2 265.583 167.456 266.767 167.904C267.983 168.352 268.927 168.992 269.599 169.824C270.271 170.656 270.607 171.728 270.607 173.04C270.607 174.416 270.223 175.632 269.455 176.688C268.687 177.744 267.503 178.56 265.903 179.136C264.335 179.712 262.303 180 259.807 180H248.479ZM260.143 178.464C261.103 178.464 262.015 178.288 262.879 177.936C263.775 177.584 264.495 177.008 265.039 176.208C265.583 175.408 265.855 174.336 265.855 172.992C265.855 171.424 265.359 170.224 264.367 169.392C263.375 168.56 262.031 168.144 260.335 168.144H256.495V178.272C257.135 178.336 257.759 178.384 258.367 178.416C258.975 178.448 259.567 178.464 260.143 178.464ZM256.495 166.512H259.951C261.327 166.512 262.415 166.08 263.215 165.216C264.047 164.352 264.463 163.104 264.463 161.472C264.463 159.904 264.015 158.768 263.119 158.064C262.223 157.36 260.991 157.008 259.423 157.008C258.847 157.008 258.303 157.024 257.791 157.056C257.279 157.088 256.847 157.12 256.495 157.152V166.512ZM285.907 180.672C283.667 180.672 281.715 180.192 280.051 179.232C278.387 178.24 277.091 176.816 276.163 174.96C275.267 173.072 274.819 170.816 274.819 168.192C274.819 165.376 275.299 162.976 276.259 160.992C277.251 159.008 278.611 157.488 280.339 156.432C282.067 155.376 284.099 154.848 286.435 154.848C288.195 154.848 289.715 155.2 290.995 155.904C292.307 156.608 293.315 157.6 294.019 158.88C294.755 160.16 295.123 161.664 295.123 163.392C295.123 163.968 295.091 164.56 295.027 165.168C294.963 165.744 294.867 166.352 294.739 166.992H279.618C279.587 169.328 279.891 171.264 280.531 172.8C281.171 174.304 282.067 175.424 283.219 176.16C284.371 176.896 285.715 177.264 287.251 177.264C288.563 177.264 289.795 177.04 290.947 176.592C292.131 176.144 293.283 175.36 294.403 174.24L295.363 175.152C294.179 177.04 292.771 178.432 291.139 179.328C289.539 180.224 287.795 180.672 285.907 180.672ZM279.667 165.36H290.467C290.531 165.072 290.563 164.752 290.563 164.4C290.595 164.016 290.611 163.616 290.611 163.2C290.611 160.736 290.227 158.976 289.459 157.92C288.691 156.864 287.523 156.336 285.955 156.336C284.707 156.336 283.635 156.656 282.739 157.296C281.875 157.904 281.187 158.88 280.675 160.224C280.163 161.536 279.827 163.248 279.667 165.36ZM298.9 190.368V189.024L301.156 188.688C301.636 188.624 301.972 188.448 302.164 188.16C302.388 187.872 302.5 187.312 302.5 186.48V160.272C302.5 159.056 302.388 158.256 302.164 157.872C301.972 157.488 301.508 157.264 300.772 157.2L298.468 156.96L298.708 155.664L306.1 155.232L306.532 155.472L306.676 159.552H306.772C307.444 158.4 308.18 157.488 308.98 156.816C309.812 156.112 310.724 155.616 311.716 155.328C312.708 155.008 313.764 154.848 314.884 154.848C316.9 154.848 318.628 155.312 320.068 156.24C321.508 157.136 322.612 158.48 323.38 160.272C324.148 162.064 324.532 164.304 324.532 166.992C324.532 169.776 324.084 172.192 323.188 174.24C322.324 176.288 321.028 177.872 319.3 178.992C317.604 180.112 315.524 180.672 313.06 180.672C312.004 180.672 310.9 180.528 309.748 180.24C308.628 179.952 307.7 179.568 306.964 179.088V186.384C306.964 187.184 307.06 187.744 307.252 188.064C307.444 188.384 307.86 188.592 308.5 188.688L311.428 189.072V190.368H298.9ZM312.964 178.8C314.372 178.8 315.572 178.432 316.564 177.696C317.588 176.96 318.372 175.76 318.916 174.096C319.492 172.4 319.78 170.176 319.78 167.424C319.78 165.024 319.524 163.088 319.012 161.616C318.532 160.112 317.828 159.024 316.9 158.352C316.004 157.648 314.884 157.296 313.54 157.296C312.164 157.296 310.98 157.568 309.988 158.112C309.028 158.656 308.276 159.44 307.732 160.464C307.22 161.456 306.964 162.656 306.964 164.064V176.544C307.604 177.152 308.468 177.68 309.556 178.128C310.676 178.576 311.812 178.8 312.964 178.8ZM329.434 180V178.656L331.738 178.32C332.282 178.224 332.618 178.016 332.746 177.696C332.906 177.344 332.986 176.784 332.986 176.016V159.264C332.986 158.592 332.89 158.112 332.698 157.824C332.538 157.504 332.186 157.296 331.642 157.2L329.29 156.864L329.53 155.52H348.01L349.258 164.208L347.77 164.592L346.858 161.808C346.474 160.624 346.058 159.68 345.61 158.976C345.194 158.272 344.618 157.776 343.882 157.488C343.178 157.2 342.186 157.056 340.906 157.056H337.45V176.16C337.45 176.864 337.514 177.36 337.642 177.648C337.802 177.936 338.154 178.128 338.698 178.224L342.682 178.704V180H329.434Z" fill="black"/>
<path d="M199.836 286V284.74L201.564 284.452C201.948 284.38 202.2 284.236 202.32 284.02C202.44 283.78 202.5 283.348 202.5 282.724V270.88C202.5 270.304 202.44 269.908 202.32 269.692C202.2 269.476 201.96 269.332 201.6 269.26L199.764 268.936L199.98 267.676H208.584V268.936L206.784 269.26C206.4 269.308 206.148 269.452 206.028 269.692C205.908 269.908 205.848 270.316 205.848 270.916V280.168L214.56 271.384V270.772C214.56 270.22 214.5 269.848 214.38 269.656C214.26 269.44 214.008 269.296 213.624 269.224L211.824 268.9L212.04 267.676H220.644V268.936L218.916 269.224C218.508 269.296 218.232 269.44 218.088 269.656C217.968 269.872 217.908 270.28 217.908 270.88V282.904C217.908 283.456 217.968 283.84 218.088 284.056C218.232 284.248 218.496 284.368 218.88 284.416L220.716 284.74V286H211.896V284.74L213.588 284.452C213.996 284.404 214.26 284.272 214.38 284.056C214.5 283.816 214.56 283.396 214.56 282.796V273.436L205.848 282.184V282.868C205.848 283.42 205.908 283.804 206.028 284.02C206.148 284.212 206.388 284.344 206.748 284.416L208.656 284.776V286H199.836ZM243.278 286.504C241.622 286.504 240.182 286.132 238.958 285.388C237.734 284.644 236.774 283.6 236.078 282.256C235.382 280.888 234.998 279.292 234.926 277.468H230.246V282.868C230.246 283.396 230.306 283.768 230.426 283.984C230.546 284.2 230.786 284.344 231.146 284.416L233.054 284.776V286H224.234V284.74L225.962 284.452C226.346 284.38 226.598 284.236 226.718 284.02C226.838 283.78 226.898 283.348 226.898 282.724V270.88C226.898 270.304 226.838 269.908 226.718 269.692C226.598 269.476 226.358 269.332 225.998 269.26L224.162 268.936L224.378 267.676H232.982V268.936L231.182 269.26C230.798 269.308 230.546 269.452 230.426 269.692C230.306 269.908 230.246 270.316 230.246 270.916V275.92H234.998C235.142 274.12 235.586 272.572 236.33 271.276C237.098 269.98 238.118 268.972 239.39 268.252C240.662 267.532 242.114 267.172 243.746 267.172C245.354 267.172 246.77 267.556 247.994 268.324C249.218 269.068 250.166 270.124 250.838 271.492C251.534 272.86 251.882 274.48 251.882 276.352C251.882 278.392 251.522 280.18 250.802 281.716C250.082 283.228 249.074 284.404 247.778 285.244C246.482 286.084 244.982 286.504 243.278 286.504ZM243.818 284.812C245.186 284.812 246.254 284.176 247.022 282.904C247.814 281.608 248.21 279.7 248.21 277.18C248.21 275.308 248.006 273.748 247.598 272.5C247.19 271.252 246.602 270.328 245.834 269.728C245.09 269.104 244.202 268.792 243.17 268.792C241.754 268.792 240.626 269.416 239.786 270.664C238.97 271.912 238.562 273.772 238.562 276.244C238.562 278.092 238.778 279.664 239.21 280.96C239.666 282.232 240.278 283.192 241.046 283.84C241.838 284.488 242.762 284.812 243.818 284.812ZM256.538 286.468C255.818 286.468 255.206 286.264 254.702 285.856C254.198 285.424 253.946 284.896 253.946 284.272C253.946 283.84 254.03 283.444 254.198 283.084C254.366 282.724 254.582 282.448 254.846 282.256C255.134 282.04 255.434 281.932 255.746 281.932C256.13 281.932 256.49 282.076 256.826 282.364C257.186 282.652 257.606 283.072 258.086 283.624C258.278 283.432 258.446 283.18 258.59 282.868C258.734 282.556 258.878 282.172 259.022 281.716C259.238 281.092 259.418 280.384 259.562 279.592C259.706 278.8 259.826 277.948 259.922 277.036C260.018 276.124 260.09 275.176 260.138 274.192C260.186 273.208 260.21 272.2 260.21 271.168C260.21 270.472 260.138 269.992 259.994 269.728C259.874 269.464 259.598 269.296 259.166 269.224L257.366 268.972L257.582 267.676H273.998V269.008L272.234 269.26C271.826 269.332 271.55 269.464 271.406 269.656C271.262 269.824 271.19 270.136 271.19 270.592V282.904C271.19 283.456 271.25 283.84 271.37 284.056C271.49 284.248 271.754 284.368 272.162 284.416L273.998 284.74V286H265.178V284.74L266.834 284.452C267.242 284.404 267.506 284.272 267.626 284.056C267.77 283.816 267.842 283.396 267.842 282.796V269.224H262.01C262.01 270.088 261.998 270.952 261.974 271.816C261.95 272.656 261.914 273.484 261.866 274.3C261.818 275.092 261.758 275.86 261.686 276.604C261.614 277.348 261.518 278.068 261.398 278.764C261.23 279.892 261.002 280.936 260.714 281.896C260.426 282.832 260.09 283.648 259.706 284.344C259.322 285.016 258.866 285.544 258.338 285.928C257.81 286.288 257.21 286.468 256.538 286.468ZM279.511 286.432C278.863 286.432 278.311 286.324 277.855 286.108C277.399 285.892 276.907 285.532 276.379 285.028L276.703 284.056C276.895 284.152 277.063 284.224 277.207 284.272C277.375 284.296 277.555 284.308 277.747 284.308C278.131 284.308 278.455 284.236 278.719 284.092C278.983 283.948 279.247 283.648 279.511 283.192C279.775 282.736 280.087 282.052 280.447 281.14C280.711 280.492 281.023 279.928 281.383 279.448C281.767 278.968 282.235 278.572 282.787 278.26C283.363 277.948 284.023 277.72 284.767 277.576L284.983 277.54C283.663 277.42 282.559 277.168 281.671 276.784C280.807 276.376 280.159 275.824 279.727 275.128C279.319 274.432 279.115 273.604 279.115 272.644C279.115 271.54 279.415 270.628 280.015 269.908C280.615 269.164 281.467 268.612 282.571 268.252C283.675 267.868 284.971 267.676 286.459 267.676H295.495V268.936L293.767 269.224C293.359 269.296 293.083 269.44 292.939 269.656C292.819 269.872 292.759 270.28 292.759 270.88V282.904C292.759 283.432 292.819 283.804 292.939 284.02C293.083 284.236 293.347 284.368 293.731 284.416L295.567 284.74V286H286.747V284.74L288.439 284.452C288.847 284.404 289.111 284.272 289.231 284.056C289.375 283.816 289.447 283.396 289.447 282.796V278.08C289.207 278.08 288.919 278.08 288.583 278.08C288.247 278.08 287.911 278.092 287.575 278.116C287.239 278.116 286.963 278.128 286.747 278.152C286.123 278.224 285.631 278.38 285.271 278.62C284.911 278.86 284.599 279.292 284.335 279.916C284.071 280.516 283.783 281.404 283.471 282.58C283.255 283.444 282.955 284.164 282.571 284.74C282.187 285.316 281.731 285.736 281.203 286C280.699 286.288 280.135 286.432 279.511 286.432ZM287.215 276.64H289.447V269.152C289.111 269.104 288.763 269.068 288.403 269.044C288.043 269.02 287.563 269.008 286.963 269.008C286.123 269.008 285.379 269.152 284.731 269.44C284.083 269.728 283.579 270.16 283.219 270.736C282.859 271.288 282.679 271.984 282.679 272.824C282.679 274.144 283.063 275.116 283.831 275.74C284.599 276.34 285.727 276.64 287.215 276.64Z" fill="black"/>
<path d="M882.948 286.504C881.412 286.504 880.188 286.072 879.276 285.208C878.364 284.32 877.908 283.132 877.908 281.644C877.908 280.372 878.232 279.34 878.88 278.548C879.528 277.732 880.596 277.108 882.084 276.676C883.596 276.244 885.624 275.98 888.168 275.884V272.788C888.168 271.804 888.036 271 887.772 270.376C887.508 269.752 887.1 269.296 886.548 269.008C885.996 268.72 885.276 268.576 884.388 268.576C883.668 268.576 882.96 268.684 882.264 268.9C881.592 269.116 881.1 269.404 880.788 269.764C881.076 270.148 881.304 270.496 881.472 270.808C881.64 271.096 881.76 271.348 881.832 271.564C881.928 271.756 881.976 271.924 881.976 272.068C881.976 272.524 881.784 272.908 881.4 273.22C881.04 273.532 880.572 273.688 879.996 273.688C879.348 273.688 878.844 273.532 878.484 273.22C878.148 272.884 877.98 272.416 877.98 271.816C877.98 271 878.292 270.244 878.916 269.548C879.564 268.828 880.404 268.252 881.436 267.82C882.468 267.388 883.596 267.172 884.82 267.172C886.332 267.172 887.58 267.412 888.564 267.892C889.548 268.348 890.28 269.056 890.76 270.016C891.264 270.976 891.516 272.188 891.516 273.652V282.688C891.516 283.264 891.66 283.684 891.948 283.948C892.236 284.212 892.632 284.344 893.136 284.344C893.4 284.344 893.664 284.32 893.928 284.272C894.216 284.2 894.528 284.104 894.864 283.984L895.152 284.992C894.696 285.472 894.156 285.844 893.532 286.108C892.932 286.372 892.356 286.504 891.804 286.504C890.772 286.504 889.98 286.228 889.428 285.676C888.876 285.124 888.54 284.296 888.42 283.192C887.988 283.96 887.496 284.596 886.944 285.1C886.416 285.58 885.816 285.928 885.144 286.144C884.496 286.384 883.764 286.504 882.948 286.504ZM884.352 284.38C885.096 284.38 885.744 284.212 886.296 283.876C886.872 283.54 887.328 283.084 887.664 282.508C888 281.908 888.168 281.236 888.168 280.492V277.288C886.608 277.288 885.324 277.432 884.316 277.72C883.308 277.984 882.564 278.404 882.084 278.98C881.628 279.556 881.4 280.312 881.4 281.248C881.4 282.232 881.664 283 882.192 283.552C882.72 284.104 883.44 284.38 884.352 284.38ZM897.137 286V284.74L898.865 284.452C899.249 284.38 899.501 284.236 899.621 284.02C899.741 283.78 899.801 283.348 899.801 282.724V270.88C899.801 270.328 899.753 269.944 899.657 269.728C899.561 269.488 899.309 269.332 898.901 269.26L897.065 268.936L897.281 267.676H905.993C907.313 267.676 908.477 267.808 909.485 268.072C910.517 268.336 911.309 268.78 911.861 269.404C912.437 270.004 912.725 270.82 912.725 271.852C912.725 273.052 912.281 274.06 911.393 274.876C910.529 275.668 909.329 276.16 907.793 276.352V276.388C908.921 276.436 909.929 276.604 910.817 276.892C911.705 277.18 912.413 277.636 912.941 278.26C913.493 278.86 913.769 279.688 913.769 280.744C913.769 281.776 913.493 282.688 912.941 283.48C912.389 284.272 911.525 284.896 910.349 285.352C909.173 285.784 907.625 286 905.705 286H897.137ZM905.993 284.56C906.737 284.56 907.421 284.428 908.045 284.164C908.693 283.9 909.209 283.492 909.593 282.94C910.001 282.364 910.205 281.62 910.205 280.708C910.205 279.676 909.857 278.848 909.161 278.224C908.465 277.6 907.469 277.288 906.173 277.288H903.149V284.416C903.629 284.464 904.109 284.5 904.589 284.524C905.069 284.548 905.537 284.56 905.993 284.56ZM903.149 275.74H905.885C906.941 275.74 907.745 275.428 908.297 274.804C908.873 274.156 909.161 273.292 909.161 272.212C909.161 271.084 908.825 270.28 908.153 269.8C907.505 269.32 906.581 269.08 905.381 269.08C904.973 269.08 904.565 269.092 904.157 269.116C903.773 269.14 903.437 269.164 903.149 269.188V275.74ZM917.248 286V284.704L918.976 284.416C919.408 284.344 919.672 284.176 919.768 283.912C919.864 283.648 919.912 283.24 919.912 282.688V270.736C919.912 270.28 919.84 269.944 919.696 269.728C919.576 269.512 919.3 269.368 918.868 269.296L917.104 268.972L917.32 267.676H931.216L932.152 274.192L930.748 274.516L930.1 272.572C929.812 271.66 929.512 270.964 929.2 270.484C928.912 269.98 928.504 269.632 927.976 269.44C927.448 269.224 926.692 269.116 925.708 269.116H923.26V282.796C923.26 283.3 923.308 283.672 923.404 283.912C923.5 284.128 923.764 284.272 924.196 284.344L927.22 284.74V286H917.248ZM936.771 294.28C935.667 294.28 934.791 294.016 934.143 293.488C933.519 292.984 933.207 292.3 933.207 291.436C933.207 290.788 933.411 290.236 933.819 289.78C934.227 289.348 934.767 289.132 935.439 289.132C935.991 289.132 936.435 289.252 936.771 289.492C937.131 289.756 937.323 290.104 937.347 290.536C937.371 290.728 937.359 290.992 937.311 291.328C937.287 291.664 937.215 292.12 937.095 292.696C937.599 292.72 938.079 292.612 938.535 292.372C938.991 292.156 939.447 291.7 939.903 291.004C940.383 290.332 940.911 289.312 941.487 287.944L942.243 286.108L935.979 271.132C935.691 270.412 935.451 269.944 935.259 269.728C935.091 269.512 934.827 269.356 934.467 269.26L933.207 268.972L933.495 267.676H942.027V268.9L940.299 269.152C939.843 269.2 939.543 269.344 939.399 269.584C939.279 269.824 939.351 270.28 939.615 270.952L943.935 281.824H944.079L948.327 271.132C948.567 270.556 948.615 270.124 948.471 269.836C948.351 269.524 948.015 269.32 947.463 269.224L945.987 268.9L946.239 267.676H953.151V268.936L951.891 269.188C951.507 269.284 951.207 269.44 950.991 269.656C950.775 269.872 950.511 270.364 950.199 271.132L943.395 287.8C942.891 289.072 942.387 290.128 941.883 290.968C941.403 291.808 940.899 292.468 940.371 292.948C939.843 293.428 939.291 293.764 938.715 293.956C938.139 294.172 937.491 294.28 936.771 294.28ZM962.437 286.504C960.781 286.504 959.329 286.132 958.081 285.388C956.833 284.62 955.861 283.54 955.165 282.148C954.493 280.756 954.157 279.076 954.157 277.108C954.157 275.068 954.517 273.316 955.237 271.852C955.981 270.364 957.013 269.212 958.333 268.396C959.653 267.58 961.177 267.172 962.905 267.172C964.105 267.172 965.173 267.376 966.109 267.784C967.069 268.192 967.813 268.744 968.341 269.44C968.893 270.112 969.169 270.88 969.169 271.744C969.169 272.224 969.073 272.644 968.881 273.004C968.713 273.34 968.461 273.604 968.125 273.796C967.789 273.988 967.381 274.084 966.901 274.084C966.229 274.084 965.713 273.928 965.353 273.616C964.993 273.28 964.813 272.848 964.813 272.32C964.813 272.008 964.897 271.66 965.065 271.276C965.257 270.868 965.557 270.328 965.965 269.656C965.509 269.296 965.029 269.056 964.525 268.936C964.045 268.792 963.445 268.72 962.725 268.72C961.765 268.72 960.913 269.02 960.169 269.62C959.425 270.196 958.837 271.048 958.405 272.176C957.973 273.28 957.757 274.636 957.757 276.244C957.757 278.644 958.261 280.516 959.269 281.86C960.301 283.18 961.693 283.84 963.445 283.84C964.477 283.84 965.401 283.66 966.217 283.3C967.033 282.94 967.741 282.46 968.341 281.86L969.241 282.796C968.473 283.972 967.501 284.884 966.325 285.532C965.149 286.18 963.853 286.504 962.437 286.504ZM976.299 286V284.74L978.099 284.452C978.483 284.38 978.735 284.236 978.855 284.02C978.975 283.78 979.035 283.348 979.035 282.724V269.116H977.703C976.983 269.116 976.395 269.164 975.939 269.26C975.507 269.356 975.135 269.536 974.823 269.8C974.535 270.04 974.283 270.4 974.067 270.88C973.851 271.36 973.611 271.972 973.347 272.716L972.807 274.372L971.367 274.156L972.339 267.676H989.079L990.051 274.156L988.611 274.372L988.035 272.644C987.723 271.66 987.423 270.916 987.135 270.412C986.847 269.908 986.439 269.572 985.911 269.404C985.407 269.212 984.675 269.116 983.715 269.116H982.383V282.868C982.383 283.396 982.443 283.768 982.563 283.984C982.683 284.2 982.923 284.344 983.283 284.416L985.263 284.776V286H976.299ZM998.014 286.504C996.478 286.504 995.254 286.072 994.342 285.208C993.43 284.32 992.974 283.132 992.974 281.644C992.974 280.372 993.298 279.34 993.946 278.548C994.594 277.732 995.662 277.108 997.15 276.676C998.662 276.244 1000.69 275.98 1003.23 275.884V272.788C1003.23 271.804 1003.1 271 1002.84 270.376C1002.57 269.752 1002.17 269.296 1001.61 269.008C1001.06 268.72 1000.34 268.576 999.454 268.576C998.734 268.576 998.026 268.684 997.33 268.9C996.658 269.116 996.166 269.404 995.854 269.764C996.142 270.148 996.37 270.496 996.538 270.808C996.706 271.096 996.826 271.348 996.898 271.564C996.994 271.756 997.042 271.924 997.042 272.068C997.042 272.524 996.85 272.908 996.466 273.22C996.106 273.532 995.638 273.688 995.062 273.688C994.414 273.688 993.91 273.532 993.55 273.22C993.214 272.884 993.046 272.416 993.046 271.816C993.046 271 993.358 270.244 993.982 269.548C994.63 268.828 995.47 268.252 996.502 267.82C997.534 267.388 998.662 267.172 999.886 267.172C1001.4 267.172 1002.65 267.412 1003.63 267.892C1004.61 268.348 1005.35 269.056 1005.83 270.016C1006.33 270.976 1006.58 272.188 1006.58 273.652V282.688C1006.58 283.264 1006.73 283.684 1007.01 283.948C1007.3 284.212 1007.7 284.344 1008.2 284.344C1008.47 284.344 1008.73 284.32 1008.99 284.272C1009.28 284.2 1009.59 284.104 1009.93 283.984L1010.22 284.992C1009.76 285.472 1009.22 285.844 1008.6 286.108C1008 286.372 1007.42 286.504 1006.87 286.504C1005.84 286.504 1005.05 286.228 1004.49 285.676C1003.94 285.124 1003.61 284.296 1003.49 283.192C1003.05 283.96 1002.56 284.596 1002.01 285.1C1001.48 285.58 1000.88 285.928 1000.21 286.144C999.562 286.384 998.83 286.504 998.014 286.504ZM999.418 284.38C1000.16 284.38 1000.81 284.212 1001.36 283.876C1001.94 283.54 1002.39 283.084 1002.73 282.508C1003.07 281.908 1003.23 281.236 1003.23 280.492V277.288C1001.67 277.288 1000.39 277.432 999.382 277.72C998.374 277.984 997.63 278.404 997.15 278.98C996.694 279.556 996.466 280.312 996.466 281.248C996.466 282.232 996.73 283 997.258 283.552C997.786 284.104 998.506 284.38 999.418 284.38Z" fill="black"/>
<path d="M538.948 286.504C537.412 286.504 536.188 286.072 535.276 285.208C534.364 284.32 533.908 283.132 533.908 281.644C533.908 280.372 534.232 279.34 534.88 278.548C535.528 277.732 536.596 277.108 538.084 276.676C539.596 276.244 541.624 275.98 544.168 275.884V272.788C544.168 271.804 544.036 271 543.772 270.376C543.508 269.752 543.1 269.296 542.548 269.008C541.996 268.72 541.276 268.576 540.388 268.576C539.668 268.576 538.96 268.684 538.264 268.9C537.592 269.116 537.1 269.404 536.788 269.764C537.076 270.148 537.304 270.496 537.472 270.808C537.64 271.096 537.76 271.348 537.832 271.564C537.928 271.756 537.976 271.924 537.976 272.068C537.976 272.524 537.784 272.908 537.4 273.22C537.04 273.532 536.572 273.688 535.996 273.688C535.348 273.688 534.844 273.532 534.484 273.22C534.148 272.884 533.98 272.416 533.98 271.816C533.98 271 534.292 270.244 534.916 269.548C535.564 268.828 536.404 268.252 537.436 267.82C538.468 267.388 539.596 267.172 540.82 267.172C542.332 267.172 543.58 267.412 544.564 267.892C545.548 268.348 546.28 269.056 546.76 270.016C547.264 270.976 547.516 272.188 547.516 273.652V282.688C547.516 283.264 547.66 283.684 547.948 283.948C548.236 284.212 548.632 284.344 549.136 284.344C549.4 284.344 549.664 284.32 549.928 284.272C550.216 284.2 550.528 284.104 550.864 283.984L551.152 284.992C550.696 285.472 550.156 285.844 549.532 286.108C548.932 286.372 548.356 286.504 547.804 286.504C546.772 286.504 545.98 286.228 545.428 285.676C544.876 285.124 544.54 284.296 544.42 283.192C543.988 283.96 543.496 284.596 542.944 285.1C542.416 285.58 541.816 285.928 541.144 286.144C540.496 286.384 539.764 286.504 538.948 286.504ZM540.352 284.38C541.096 284.38 541.744 284.212 542.296 283.876C542.872 283.54 543.328 283.084 543.664 282.508C544 281.908 544.168 281.236 544.168 280.492V277.288C542.608 277.288 541.324 277.432 540.316 277.72C539.308 277.984 538.564 278.404 538.084 278.98C537.628 279.556 537.4 280.312 537.4 281.248C537.4 282.232 537.664 283 538.192 283.552C538.72 284.104 539.44 284.38 540.352 284.38ZM553.137 286V284.74L554.865 284.452C555.249 284.38 555.501 284.236 555.621 284.02C555.741 283.78 555.801 283.348 555.801 282.724V270.88C555.801 270.328 555.753 269.944 555.657 269.728C555.561 269.488 555.309 269.332 554.901 269.26L553.065 268.936L553.281 267.676H561.993C563.313 267.676 564.477 267.808 565.485 268.072C566.517 268.336 567.309 268.78 567.861 269.404C568.437 270.004 568.725 270.82 568.725 271.852C568.725 273.052 568.281 274.06 567.393 274.876C566.529 275.668 565.329 276.16 563.793 276.352V276.388C564.921 276.436 565.929 276.604 566.817 276.892C567.705 277.18 568.413 277.636 568.941 278.26C569.493 278.86 569.769 279.688 569.769 280.744C569.769 281.776 569.493 282.688 568.941 283.48C568.389 284.272 567.525 284.896 566.349 285.352C565.173 285.784 563.625 286 561.705 286H553.137ZM561.993 284.56C562.737 284.56 563.421 284.428 564.045 284.164C564.693 283.9 565.209 283.492 565.593 282.94C566.001 282.364 566.205 281.62 566.205 280.708C566.205 279.676 565.857 278.848 565.161 278.224C564.465 277.6 563.469 277.288 562.173 277.288H559.149V284.416C559.629 284.464 560.109 284.5 560.589 284.524C561.069 284.548 561.537 284.56 561.993 284.56ZM559.149 275.74H561.885C562.941 275.74 563.745 275.428 564.297 274.804C564.873 274.156 565.161 273.292 565.161 272.212C565.161 271.084 564.825 270.28 564.153 269.8C563.505 269.32 562.581 269.08 561.381 269.08C560.973 269.08 560.565 269.092 560.157 269.116C559.773 269.14 559.437 269.164 559.149 269.188V275.74ZM573.248 286V284.704L574.976 284.416C575.408 284.344 575.672 284.176 575.768 283.912C575.864 283.648 575.912 283.24 575.912 282.688V270.736C575.912 270.28 575.84 269.944 575.696 269.728C575.576 269.512 575.3 269.368 574.868 269.296L573.104 268.972L573.32 267.676H587.216L588.152 274.192L586.748 274.516L586.1 272.572C585.812 271.66 585.512 270.964 585.2 270.484C584.912 269.98 584.504 269.632 583.976 269.44C583.448 269.224 582.692 269.116 581.708 269.116H579.26V282.796C579.26 283.3 579.308 283.672 579.404 283.912C579.5 284.128 579.764 284.272 580.196 284.344L583.22 284.74V286H573.248ZM592.771 294.28C591.667 294.28 590.791 294.016 590.143 293.488C589.519 292.984 589.207 292.3 589.207 291.436C589.207 290.788 589.411 290.236 589.819 289.78C590.227 289.348 590.767 289.132 591.439 289.132C591.991 289.132 592.435 289.252 592.771 289.492C593.131 289.756 593.323 290.104 593.347 290.536C593.371 290.728 593.359 290.992 593.311 291.328C593.287 291.664 593.215 292.12 593.095 292.696C593.599 292.72 594.079 292.612 594.535 292.372C594.991 292.156 595.447 291.7 595.903 291.004C596.383 290.332 596.911 289.312 597.487 287.944L598.243 286.108L591.979 271.132C591.691 270.412 591.451 269.944 591.259 269.728C591.091 269.512 590.827 269.356 590.467 269.26L589.207 268.972L589.495 267.676H598.027V268.9L596.299 269.152C595.843 269.2 595.543 269.344 595.399 269.584C595.279 269.824 595.351 270.28 595.615 270.952L599.935 281.824H600.079L604.327 271.132C604.567 270.556 604.615 270.124 604.471 269.836C604.351 269.524 604.015 269.32 603.463 269.224L601.987 268.9L602.239 267.676H609.151V268.936L607.891 269.188C607.507 269.284 607.207 269.44 606.991 269.656C606.775 269.872 606.511 270.364 606.199 271.132L599.395 287.8C598.891 289.072 598.387 290.128 597.883 290.968C597.403 291.808 596.899 292.468 596.371 292.948C595.843 293.428 595.291 293.764 594.715 293.956C594.139 294.172 593.491 294.28 592.771 294.28ZM618.437 286.504C616.781 286.504 615.329 286.132 614.081 285.388C612.833 284.62 611.861 283.54 611.165 282.148C610.493 280.756 610.157 279.076 610.157 277.108C610.157 275.068 610.517 273.316 611.237 271.852C611.981 270.364 613.013 269.212 614.333 268.396C615.653 267.58 617.177 267.172 618.905 267.172C620.105 267.172 621.173 267.376 622.109 267.784C623.069 268.192 623.813 268.744 624.341 269.44C624.893 270.112 625.169 270.88 625.169 271.744C625.169 272.224 625.073 272.644 624.881 273.004C624.713 273.34 624.461 273.604 624.125 273.796C623.789 273.988 623.381 274.084 622.901 274.084C622.229 274.084 621.713 273.928 621.353 273.616C620.993 273.28 620.813 272.848 620.813 272.32C620.813 272.008 620.897 271.66 621.065 271.276C621.257 270.868 621.557 270.328 621.965 269.656C621.509 269.296 621.029 269.056 620.525 268.936C620.045 268.792 619.445 268.72 618.725 268.72C617.765 268.72 616.913 269.02 616.169 269.62C615.425 270.196 614.837 271.048 614.405 272.176C613.973 273.28 613.757 274.636 613.757 276.244C613.757 278.644 614.261 280.516 615.269 281.86C616.301 283.18 617.693 283.84 619.445 283.84C620.477 283.84 621.401 283.66 622.217 283.3C623.033 282.94 623.741 282.46 624.341 281.86L625.241 282.796C624.473 283.972 623.501 284.884 622.325 285.532C621.149 286.18 619.853 286.504 618.437 286.504ZM632.299 286V284.74L634.099 284.452C634.483 284.38 634.735 284.236 634.855 284.02C634.975 283.78 635.035 283.348 635.035 282.724V269.116H633.703C632.983 269.116 632.395 269.164 631.939 269.26C631.507 269.356 631.135 269.536 630.823 269.8C630.535 270.04 630.283 270.4 630.067 270.88C629.851 271.36 629.611 271.972 629.347 272.716L628.807 274.372L627.367 274.156L628.339 267.676H645.079L646.051 274.156L644.611 274.372L644.035 272.644C643.723 271.66 643.423 270.916 643.135 270.412C642.847 269.908 642.439 269.572 641.911 269.404C641.407 269.212 640.675 269.116 639.715 269.116H638.383V282.868C638.383 283.396 638.443 283.768 638.563 283.984C638.683 284.2 638.923 284.344 639.283 284.416L641.263 284.776V286H632.299ZM654.014 286.504C652.478 286.504 651.254 286.072 650.342 285.208C649.43 284.32 648.974 283.132 648.974 281.644C648.974 280.372 649.298 279.34 649.946 278.548C650.594 277.732 651.662 277.108 653.15 276.676C654.662 276.244 656.69 275.98 659.234 275.884V272.788C659.234 271.804 659.102 271 658.838 270.376C658.574 269.752 658.166 269.296 657.614 269.008C657.062 268.72 656.342 268.576 655.454 268.576C654.734 268.576 654.026 268.684 653.33 268.9C652.658 269.116 652.166 269.404 651.854 269.764C652.142 270.148 652.37 270.496 652.538 270.808C652.706 271.096 652.826 271.348 652.898 271.564C652.994 271.756 653.042 271.924 653.042 272.068C653.042 272.524 652.85 272.908 652.466 273.22C652.106 273.532 651.638 273.688 651.062 273.688C650.414 273.688 649.91 273.532 649.55 273.22C649.214 272.884 649.046 272.416 649.046 271.816C649.046 271 649.358 270.244 649.982 269.548C650.63 268.828 651.47 268.252 652.502 267.82C653.534 267.388 654.662 267.172 655.886 267.172C657.398 267.172 658.646 267.412 659.63 267.892C660.614 268.348 661.346 269.056 661.826 270.016C662.33 270.976 662.582 272.188 662.582 273.652V282.688C662.582 283.264 662.726 283.684 663.014 283.948C663.302 284.212 663.698 284.344 664.202 284.344C664.466 284.344 664.73 284.32 664.994 284.272C665.282 284.2 665.594 284.104 665.93 283.984L666.218 284.992C665.762 285.472 665.222 285.844 664.598 286.108C663.998 286.372 663.422 286.504 662.87 286.504C661.838 286.504 661.046 286.228 660.494 285.676C659.942 285.124 659.606 284.296 659.486 283.192C659.054 283.96 658.562 284.596 658.01 285.1C657.482 285.58 656.882 285.928 656.21 286.144C655.562 286.384 654.83 286.504 654.014 286.504ZM655.418 284.38C656.162 284.38 656.81 284.212 657.362 283.876C657.938 283.54 658.394 283.084 658.73 282.508C659.066 281.908 659.234 281.236 659.234 280.492V277.288C657.674 277.288 656.39 277.432 655.382 277.72C654.374 277.984 653.63 278.404 653.15 278.98C652.694 279.556 652.466 280.312 652.466 281.248C652.466 282.232 652.73 283 653.258 283.552C653.786 284.104 654.506 284.38 655.418 284.38Z" fill="black"/>
<path d="M518.496 180V178.704L520.8 178.32C521.344 178.256 521.68 178.08 521.808 177.792C521.968 177.472 522.048 176.848 522.048 175.92V159.264C522.048 158.56 521.952 158.064 521.76 157.776C521.568 157.488 521.216 157.296 520.704 157.2L518.352 156.864L518.592 155.52H546.144V156.864L543.84 157.2C543.264 157.264 542.88 157.424 542.688 157.68C542.496 157.904 542.4 158.352 542.4 159.024V176.208C542.4 176.976 542.496 177.504 542.688 177.792C542.88 178.08 543.264 178.272 543.84 178.368L546.144 178.704V180H534.384V178.704L536.592 178.368C537.168 178.304 537.536 178.128 537.696 177.84C537.856 177.552 537.936 176.976 537.936 176.112V157.104H526.512V176.112C526.512 176.88 526.592 177.424 526.752 177.744C526.944 178.032 527.296 178.224 527.808 178.32L530.256 178.752V180H518.496ZM553.384 180.528C552.488 180.528 551.72 180.368 551.08 180.048C550.472 179.76 549.816 179.264 549.112 178.56L549.448 177.6C549.704 177.728 549.928 177.824 550.12 177.888C550.344 177.92 550.584 177.936 550.84 177.936C551.384 177.936 551.832 177.84 552.184 177.648C552.568 177.424 552.952 177.008 553.336 176.4C553.72 175.792 554.152 174.864 554.632 173.616C554.984 172.752 555.4 172 555.88 171.36C556.392 170.688 557.032 170.128 557.8 169.68C558.568 169.232 559.512 168.912 560.632 168.72L560.968 168.624C559.144 168.496 557.624 168.16 556.408 167.616C555.224 167.04 554.344 166.288 553.768 165.36C553.224 164.432 552.952 163.36 552.952 162.144C552.952 160.672 553.368 159.456 554.2 158.496C555.032 157.504 556.2 156.768 557.704 156.288C559.208 155.776 560.936 155.52 562.888 155.52H574.744V156.816L572.488 157.152C571.912 157.216 571.528 157.392 571.336 157.68C571.176 157.968 571.096 158.496 571.096 159.264V176.304C571.096 177.008 571.176 177.504 571.336 177.792C571.528 178.08 571.896 178.256 572.44 178.32L574.84 178.704V180H563.08V178.704L565.288 178.368C565.832 178.304 566.184 178.128 566.344 177.84C566.536 177.52 566.632 176.992 566.632 176.256V169.2C566.344 169.2 565.992 169.2 565.576 169.2C565.16 169.2 564.744 169.216 564.328 169.248C563.912 169.248 563.528 169.28 563.176 169.344C562.376 169.44 561.72 169.664 561.208 170.016C560.696 170.336 560.248 170.928 559.864 171.792C559.512 172.624 559.112 173.872 558.664 175.536C558.312 176.72 557.88 177.68 557.368 178.416C556.856 179.152 556.264 179.68 555.592 180C554.952 180.352 554.216 180.528 553.384 180.528ZM563.8 167.664H566.632V157.152C566.28 157.088 565.864 157.04 565.384 157.008C564.936 156.976 564.344 156.96 563.608 156.96C562.488 156.96 561.48 157.152 560.584 157.536C559.688 157.92 558.984 158.512 558.472 159.312C557.96 160.112 557.704 161.104 557.704 162.288C557.704 164.176 558.232 165.552 559.288 166.416C560.376 167.248 561.88 167.664 563.8 167.664ZM584.807 180V178.704L587.255 178.32C587.767 178.256 588.103 178.064 588.263 177.744C588.423 177.424 588.503 176.848 588.503 176.016V157.056H586.679C585.687 157.056 584.871 157.136 584.231 157.296C583.591 157.456 583.047 157.728 582.599 158.112C582.183 158.496 581.815 159.024 581.495 159.696C581.207 160.336 580.903 161.152 580.583 162.144L579.863 164.448L578.327 164.208L579.623 155.52H601.847L603.143 164.208L601.607 164.448L600.839 162.048C600.487 160.768 600.087 159.776 599.639 159.072C599.191 158.336 598.599 157.824 597.863 157.536C597.127 157.216 596.087 157.056 594.743 157.056H592.967V176.208C592.967 176.944 593.047 177.456 593.207 177.744C593.367 178.032 593.687 178.208 594.167 178.272L596.855 178.752V180H584.807ZM606.901 180V178.704L609.205 178.32C609.717 178.256 610.053 178.064 610.213 177.744C610.373 177.424 610.453 176.848 610.453 176.016V159.408C610.453 158.608 610.373 158.064 610.213 157.776C610.053 157.456 609.717 157.264 609.205 157.2L606.805 156.816L607.045 155.52H618.565V156.816L616.117 157.2C615.637 157.264 615.317 157.456 615.157 157.776C614.997 158.064 614.917 158.592 614.917 159.36V166.752H626.581V159.168C626.581 158.432 626.501 157.936 626.341 157.68C626.181 157.392 625.829 157.216 625.285 157.152L622.981 156.768L623.173 155.52H634.741V156.816L632.437 157.152C631.861 157.216 631.477 157.392 631.285 157.68C631.125 157.968 631.045 158.496 631.045 159.264V176.304C631.045 177.04 631.125 177.552 631.285 177.84C631.477 178.096 631.861 178.256 632.437 178.32L634.789 178.704V180H623.029V178.704L625.237 178.368C625.813 178.304 626.181 178.128 626.341 177.84C626.501 177.52 626.581 176.992 626.581 176.256V168.384H614.917V176.208C614.917 176.944 614.997 177.456 615.157 177.744C615.317 178.032 615.637 178.208 616.117 178.272L618.661 178.752V180H606.901ZM639.479 180V178.704L641.783 178.32C642.295 178.256 642.631 178.064 642.791 177.744C642.951 177.424 643.031 176.848 643.031 176.016V159.408C643.031 158.608 642.951 158.064 642.791 157.776C642.631 157.456 642.295 157.264 641.783 157.2L639.383 156.816L639.623 155.52H651.143V156.816L648.695 157.2C648.215 157.264 647.895 157.456 647.735 157.776C647.575 158.064 647.495 158.592 647.495 159.36V172.944L659.063 160.128V159.168C659.063 158.432 658.967 157.936 658.775 157.68C658.615 157.392 658.263 157.216 657.719 157.152L655.415 156.768L655.607 155.52H667.175V156.816L664.871 157.152C664.327 157.216 663.959 157.392 663.767 157.68C663.607 157.968 663.527 158.496 663.527 159.264V176.304C663.527 177.04 663.607 177.552 663.767 177.84C663.959 178.096 664.327 178.256 664.871 178.32L667.271 178.704V180H655.511V178.704L657.671 178.368C658.247 178.304 658.615 178.128 658.775 177.84C658.967 177.52 659.063 176.992 659.063 176.256V162.336L647.495 175.2V176.208C647.495 176.944 647.575 177.456 647.735 177.744C647.895 178.032 648.215 178.208 648.695 178.272L651.239 178.752V180H639.479ZM699.469 187.056L699.037 184.32C698.845 183.168 698.589 182.272 698.269 181.632C697.981 181.024 697.533 180.592 696.925 180.336C696.349 180.112 695.517 180 694.429 180H671.821V178.656L674.173 178.272C674.685 178.208 675.037 178.032 675.229 177.744C675.421 177.456 675.517 176.944 675.517 176.208V159.408C675.517 158.608 675.437 158.064 675.277 157.776C675.117 157.456 674.781 157.264 674.269 157.2L671.869 156.816L672.061 155.52H683.629V156.816L681.181 157.2C680.701 157.264 680.381 157.456 680.221 157.776C680.061 158.064 679.981 158.592 679.981 159.36V178.368H691.405V159.168C691.405 158.432 691.309 157.936 691.117 157.68C690.957 157.392 690.605 157.216 690.061 157.152L687.757 156.768L687.949 155.52H699.517V156.816L697.261 157.152C696.685 157.216 696.301 157.392 696.109 157.68C695.949 157.968 695.869 158.496 695.869 159.264V178.368H700.957V186.72L699.469 187.056ZM711.686 180.672C709.606 180.672 707.974 180.096 706.79 178.944C705.606 177.792 705.014 176.208 705.014 174.192C705.014 172.528 705.43 171.168 706.262 170.112C707.126 169.024 708.55 168.208 710.534 167.664C712.518 167.088 715.206 166.72 718.598 166.56V161.856C718.598 160.544 718.422 159.488 718.07 158.688C717.718 157.856 717.174 157.264 716.438 156.912C715.734 156.528 714.806 156.336 713.654 156.336C712.662 156.336 711.686 156.496 710.726 156.816C709.766 157.104 709.046 157.488 708.566 157.968C709.014 158.544 709.366 159.056 709.622 159.504C709.91 159.92 710.102 160.272 710.198 160.56C710.326 160.848 710.39 161.12 710.39 161.376C710.39 161.92 710.15 162.416 709.67 162.864C709.19 163.28 708.566 163.488 707.798 163.488C706.934 163.488 706.262 163.264 705.782 162.816C705.334 162.368 705.11 161.744 705.11 160.944C705.11 159.888 705.526 158.896 706.358 157.968C707.19 157.04 708.294 156.288 709.67 155.712C711.078 155.136 712.566 154.848 714.134 154.848C716.15 154.848 717.814 155.168 719.126 155.808C720.47 156.416 721.462 157.36 722.102 158.64C722.742 159.92 723.062 161.536 723.062 163.488V175.824C723.062 176.624 723.254 177.216 723.638 177.6C724.022 177.952 724.55 178.128 725.222 178.128C725.574 178.128 725.942 178.08 726.326 177.984C726.742 177.888 727.158 177.744 727.574 177.552L727.91 178.56C727.238 179.296 726.502 179.824 725.702 180.144C724.934 180.496 724.182 180.672 723.446 180.672C722.006 180.672 720.918 180.304 720.182 179.568C719.478 178.8 719.062 177.664 718.934 176.16C718.358 177.248 717.702 178.128 716.966 178.8C716.262 179.44 715.478 179.904 714.614 180.192C713.75 180.512 712.774 180.672 711.686 180.672ZM713.606 178.176C714.598 178.176 715.462 177.952 716.198 177.504C716.966 177.024 717.558 176.384 717.974 175.584C718.39 174.784 718.598 173.888 718.598 172.896V168.048C716.518 168.08 714.806 168.288 713.462 168.672C712.15 169.024 711.19 169.616 710.582 170.448C709.974 171.248 709.67 172.32 709.67 173.664C709.67 175.072 710.006 176.176 710.678 176.976C711.382 177.776 712.358 178.176 713.606 178.176Z" fill="black"/>
<path d="M864.152 180.672C862.008 180.672 860.12 180.176 858.488 179.184C856.856 178.192 855.576 176.768 854.648 174.912C853.72 173.056 853.256 170.8 853.256 168.144C853.256 165.392 853.752 163.024 854.744 161.04C855.736 159.056 857.096 157.536 858.824 156.48C860.584 155.392 862.6 154.848 864.872 154.848C866.504 154.848 867.928 155.12 869.144 155.664C870.392 156.176 871.368 156.88 872.072 157.776C872.776 158.672 873.128 159.664 873.128 160.752C873.128 161.392 873.016 161.952 872.792 162.432C872.568 162.88 872.232 163.232 871.784 163.488C871.336 163.744 870.792 163.872 870.152 163.872C869.256 163.872 868.568 163.664 868.088 163.248C867.64 162.832 867.416 162.272 867.416 161.568C867.416 161.12 867.544 160.624 867.8 160.08C868.088 159.504 868.536 158.736 869.144 157.776C868.536 157.296 867.88 156.96 867.176 156.768C866.504 156.576 865.688 156.48 864.728 156.48C863.448 156.48 862.296 156.864 861.272 157.632C860.28 158.4 859.496 159.552 858.92 161.088C858.344 162.624 858.056 164.544 858.056 166.848C858.056 170.208 858.728 172.784 860.072 174.576C861.448 176.336 863.288 177.216 865.592 177.216C867.032 177.216 868.312 176.976 869.432 176.496C870.552 175.984 871.512 175.328 872.312 174.528L873.272 175.44C872.216 177.104 870.92 178.4 869.384 179.328C867.848 180.224 866.104 180.672 864.152 180.672ZM879.431 191.04C877.991 191.04 876.855 190.704 876.023 190.032C875.191 189.36 874.775 188.448 874.775 187.296C874.775 186.464 875.031 185.76 875.543 185.184C876.055 184.608 876.759 184.32 877.655 184.32C878.423 184.32 879.031 184.496 879.479 184.848C879.927 185.232 880.167 185.712 880.199 186.288C880.231 186.544 880.215 186.912 880.151 187.392C880.087 187.872 879.959 188.496 879.767 189.264C880.471 189.296 881.143 189.168 881.783 188.88C882.455 188.592 883.127 187.968 883.799 187.008C884.503 186.048 885.239 184.624 886.007 182.736L886.967 180.48L878.279 159.744C877.895 158.752 877.575 158.112 877.319 157.824C877.095 157.536 876.759 157.328 876.311 157.2L874.679 156.816L874.967 155.52H886.295V156.768L883.991 157.056C883.415 157.12 883.031 157.328 882.839 157.68C882.679 158 882.759 158.592 883.079 159.456L889.175 174.72H889.367L895.175 159.696C895.527 158.864 895.591 158.272 895.367 157.92C895.175 157.536 894.727 157.264 894.023 157.104L892.151 156.768L892.391 155.52H901.079V156.816L899.399 157.104C898.887 157.232 898.487 157.44 898.199 157.728C897.943 158.016 897.623 158.656 897.239 159.648L888.263 182.208C887.591 184 886.903 185.456 886.199 186.576C885.527 187.728 884.839 188.624 884.135 189.264C883.463 189.936 882.727 190.4 881.927 190.656C881.159 190.912 880.327 191.04 879.431 191.04ZM913.805 180.672C911.885 180.672 910.221 180.288 908.813 179.52C907.405 178.72 906.237 177.664 905.309 176.352C904.381 175.008 903.693 173.488 903.245 171.792C902.797 170.064 902.589 168.256 902.621 166.368L902.669 163.92C902.701 160.912 903.053 158.272 903.725 156C904.397 153.696 905.325 151.76 906.509 150.192C907.693 148.624 909.053 147.456 910.589 146.688C912.157 145.888 913.853 145.488 915.677 145.488C916.189 145.488 916.685 145.488 917.165 145.488C917.677 145.488 918.253 145.488 918.893 145.488C919.565 145.488 920.317 145.488 921.149 145.488C921.789 145.488 922.237 145.408 922.493 145.248C922.749 145.088 922.941 144.832 923.069 144.48C923.165 144.192 923.245 143.872 923.309 143.52C923.405 143.136 923.469 142.784 923.501 142.464L924.845 142.752C924.781 144 924.621 145.072 924.365 145.968C924.141 146.864 923.757 147.6 923.213 148.176C922.669 148.752 921.853 149.184 920.765 149.472C920.541 149.536 920.237 149.6 919.853 149.664C919.469 149.696 918.989 149.744 918.413 149.808C917.837 149.84 917.133 149.888 916.301 149.952C915.501 149.984 914.573 150.032 913.517 150.096C912.205 150.16 911.005 150.448 909.917 150.96C908.861 151.472 907.933 152.224 907.133 153.216C906.365 154.208 905.757 155.488 905.309 157.056C904.893 158.592 904.669 160.416 904.637 162.528V163.008C905.629 160.576 906.925 158.752 908.525 157.536C910.157 156.288 912.221 155.664 914.717 155.664C916.861 155.664 918.733 156.144 920.333 157.104C921.965 158.032 923.229 159.392 924.125 161.184C925.021 162.944 925.469 165.04 925.469 167.472C925.469 169.488 925.165 171.312 924.557 172.944C923.949 174.576 923.117 175.968 922.061 177.12C921.005 178.272 919.757 179.152 918.317 179.76C916.909 180.368 915.405 180.672 913.805 180.672ZM914.717 178.896C915.869 178.896 916.893 178.544 917.789 177.84C918.685 177.136 919.389 176.032 919.901 174.528C920.413 172.992 920.669 171.008 920.669 168.576C920.669 166.272 920.381 164.288 919.805 162.624C919.261 160.96 918.493 159.664 917.501 158.736C916.509 157.808 915.341 157.344 913.997 157.344C912.109 157.344 910.573 158.256 909.389 160.08C908.205 161.904 907.613 164.448 907.613 167.712C907.613 170.208 907.933 172.288 908.573 173.952C909.245 175.616 910.109 176.864 911.165 177.696C912.253 178.496 913.437 178.896 914.717 178.896ZM941.274 180.672C939.354 180.672 937.69 180.288 936.282 179.52C934.874 178.72 933.706 177.664 932.778 176.352C931.85 175.008 931.162 173.488 930.714 171.792C930.266 170.064 930.058 168.256 930.09 166.368L930.138 163.92C930.17 160.912 930.522 158.272 931.194 156C931.866 153.696 932.794 151.76 933.978 150.192C935.162 148.624 936.522 147.456 938.058 146.688C939.626 145.888 941.322 145.488 943.146 145.488C943.658 145.488 944.154 145.488 944.634 145.488C945.146 145.488 945.722 145.488 946.362 145.488C947.034 145.488 947.786 145.488 948.618 145.488C949.258 145.488 949.706 145.408 949.962 145.248C950.218 145.088 950.41 144.832 950.538 144.48C950.634 144.192 950.714 143.872 950.778 143.52C950.874 143.136 950.938 142.784 950.97 142.464L952.314 142.752C952.25 144 952.09 145.072 951.834 145.968C951.61 146.864 951.226 147.6 950.682 148.176C950.138 148.752 949.322 149.184 948.234 149.472C948.01 149.536 947.706 149.6 947.322 149.664C946.938 149.696 946.458 149.744 945.882 149.808C945.306 149.84 944.602 149.888 943.77 149.952C942.97 149.984 942.042 150.032 940.986 150.096C939.674 150.16 938.474 150.448 937.386 150.96C936.33 151.472 935.402 152.224 934.602 153.216C933.834 154.208 933.226 155.488 932.778 157.056C932.362 158.592 932.138 160.416 932.106 162.528V163.008C933.098 160.576 934.394 158.752 935.994 157.536C937.626 156.288 939.69 155.664 942.186 155.664C944.33 155.664 946.202 156.144 947.802 157.104C949.434 158.032 950.698 159.392 951.594 161.184C952.49 162.944 952.938 165.04 952.938 167.472C952.938 169.488 952.634 171.312 952.026 172.944C951.418 174.576 950.586 175.968 949.53 177.12C948.474 178.272 947.226 179.152 945.786 179.76C944.378 180.368 942.874 180.672 941.274 180.672ZM942.186 178.896C943.338 178.896 944.362 178.544 945.258 177.84C946.154 177.136 946.858 176.032 947.37 174.528C947.882 172.992 948.138 171.008 948.138 168.576C948.138 166.272 947.85 164.288 947.274 162.624C946.73 160.96 945.962 159.664 944.97 158.736C943.978 157.808 942.81 157.344 941.466 157.344C939.578 157.344 938.042 158.256 936.858 160.08C935.674 161.904 935.082 164.448 935.082 167.712C935.082 170.208 935.402 172.288 936.042 173.952C936.714 175.616 937.578 176.864 938.634 177.696C939.722 178.496 940.906 178.896 942.186 178.896ZM968.839 180.672C966.503 180.672 964.471 180.176 962.743 179.184C961.015 178.16 959.671 176.72 958.711 174.864C957.783 173.008 957.319 170.816 957.319 168.288C957.319 165.504 957.815 163.12 958.807 161.136C959.799 159.12 961.207 157.568 963.031 156.48C964.855 155.392 967.015 154.848 969.511 154.848C971.815 154.848 973.799 155.344 975.463 156.336C977.159 157.328 978.471 158.752 979.399 160.608C980.327 162.432 980.791 164.592 980.791 167.088C980.791 169.84 980.295 172.24 979.302 174.288C978.311 176.304 976.919 177.872 975.127 178.992C973.367 180.112 971.271 180.672 968.839 180.672ZM969.607 178.896C970.951 178.896 972.087 178.528 973.015 177.792C973.975 177.024 974.695 175.856 975.175 174.288C975.655 172.72 975.895 170.72 975.895 168.288C975.895 166.336 975.719 164.624 975.367 163.152C975.047 161.68 974.567 160.464 973.927 159.504C973.319 158.512 972.567 157.776 971.671 157.296C970.807 156.816 969.815 156.576 968.695 156.576C967.287 156.576 966.103 156.944 965.143 157.68C964.183 158.384 963.447 159.504 962.935 161.04C962.423 162.544 962.167 164.496 962.167 166.896C962.167 169.552 962.471 171.776 963.079 173.568C963.719 175.328 964.583 176.656 965.671 177.552C966.791 178.448 968.103 178.896 969.607 178.896ZM990.823 180V178.704L993.271 178.32C993.783 178.256 994.119 178.064 994.279 177.744C994.439 177.424 994.519 176.848 994.519 176.016V157.056H992.695C991.703 157.056 990.887 157.136 990.247 157.296C989.607 157.456 989.063 157.728 988.615 158.112C988.199 158.496 987.831 159.024 987.511 159.696C987.223 160.336 986.919 161.152 986.599 162.144L985.879 164.448L984.343 164.208L985.639 155.52H1007.86L1009.16 164.208L1007.62 164.448L1006.85 162.048C1006.5 160.768 1006.1 159.776 1005.65 159.072C1005.21 158.336 1004.61 157.824 1003.88 157.536C1003.14 157.216 1002.1 157.056 1000.76 157.056H998.983V176.208C998.983 176.944 999.063 177.456 999.223 177.744C999.383 178.032 999.703 178.208 1000.18 178.272L1002.87 178.752V180H990.823ZM1019.73 180.672C1017.65 180.672 1016.02 180.096 1014.84 178.944C1013.65 177.792 1013.06 176.208 1013.06 174.192C1013.06 172.528 1013.48 171.168 1014.31 170.112C1015.17 169.024 1016.6 168.208 1018.58 167.664C1020.56 167.088 1023.25 166.72 1026.64 166.56V161.856C1026.64 160.544 1026.47 159.488 1026.12 158.688C1025.76 157.856 1025.22 157.264 1024.48 156.912C1023.78 156.528 1022.85 156.336 1021.7 156.336C1020.71 156.336 1019.73 156.496 1018.77 156.816C1017.81 157.104 1017.09 157.488 1016.61 157.968C1017.06 158.544 1017.41 159.056 1017.67 159.504C1017.96 159.92 1018.15 160.272 1018.24 160.56C1018.37 160.848 1018.44 161.12 1018.44 161.376C1018.44 161.92 1018.2 162.416 1017.72 162.864C1017.24 163.28 1016.61 163.488 1015.84 163.488C1014.98 163.488 1014.31 163.264 1013.83 162.816C1013.38 162.368 1013.16 161.744 1013.16 160.944C1013.16 159.888 1013.57 158.896 1014.4 157.968C1015.24 157.04 1016.34 156.288 1017.72 155.712C1019.12 155.136 1020.61 154.848 1022.18 154.848C1024.2 154.848 1025.86 155.168 1027.17 155.808C1028.52 156.416 1029.51 157.36 1030.15 158.64C1030.79 159.92 1031.11 161.536 1031.11 163.488V175.824C1031.11 176.624 1031.3 177.216 1031.68 177.6C1032.07 177.952 1032.6 178.128 1033.27 178.128C1033.62 178.128 1033.99 178.08 1034.37 177.984C1034.79 177.888 1035.2 177.744 1035.62 177.552L1035.96 178.56C1035.28 179.296 1034.55 179.824 1033.75 180.144C1032.98 180.496 1032.23 180.672 1031.49 180.672C1030.05 180.672 1028.96 180.304 1028.23 179.568C1027.52 178.8 1027.11 177.664 1026.98 176.16C1026.4 177.248 1025.75 178.128 1025.01 178.8C1024.31 179.44 1023.52 179.904 1022.66 180.192C1021.8 180.512 1020.82 180.672 1019.73 180.672ZM1021.65 178.176C1022.64 178.176 1023.51 177.952 1024.24 177.504C1025.01 177.024 1025.6 176.384 1026.02 175.584C1026.44 174.784 1026.64 173.888 1026.64 172.896V168.048C1024.56 168.08 1022.85 168.288 1021.51 168.672C1020.2 169.024 1019.24 169.616 1018.63 170.448C1018.02 171.248 1017.72 172.32 1017.72 173.664C1017.72 175.072 1018.05 176.176 1018.72 176.976C1019.43 177.776 1020.4 178.176 1021.65 178.176Z" fill="black"/>
<path d="M212.2 407.2C215 407.2 218.2 406.933 221.8 406.4C225.533 405.733 229 404.467 232.2 402.6C235.533 400.6 238.267 397.8 240.4 394.2C242.667 390.6 243.8 385.867 243.8 380C243.8 376.4 243.267 373 242.2 369.8C241.267 366.467 239.733 363.533 237.6 361C235.6 358.333 233 356.267 229.8 354.8C226.6 353.2 222.8 352.4 218.4 352.4C215.6 352.4 212.933 352.733 210.4 353.4C207.867 354.067 205.6 355.333 203.6 357.2C201.6 358.933 199.933 361.4 198.6 364.6C197.267 367.8 196.333 371.867 195.8 376.8H178C178.133 373.2 178.867 369.467 180.2 365.6C181.667 361.6 184 358 187.2 354.8C190.4 351.467 194.6 348.8 199.8 346.8C205 344.667 211.533 343.6 219.4 343.6C226.6 343.6 232.8 344.667 238 346.8C243.333 348.8 247.667 351.533 251 355C254.467 358.333 257 362.267 258.6 366.8C260.2 371.333 261 376.067 261 381C261 387.933 259.133 393.6 255.4 398C251.667 402.267 246 406 238.4 409.2L236.2 410V411.4L238.4 411.8C242.8 412.467 246.733 413.933 250.2 416.2C253.667 418.333 256.6 421 259 424.2C261.533 427.267 263.467 430.733 264.8 434.6C266.133 438.333 266.8 442.067 266.8 445.8C266.8 451.133 265.733 456.333 263.6 461.4C261.6 466.467 258.533 471 254.4 475C250.267 478.867 245.067 482 238.8 484.4C232.667 486.8 225.467 488 217.2 488C211.333 488.133 205.8 487.333 200.6 485.6C195.4 483.867 190.8 481.467 186.8 478.4C182.933 475.2 179.8 471.533 177.4 467.4C175.133 463.267 174 458.933 174 454.4H194C194.133 457.6 194.8 460.733 196 463.8C197.333 466.867 199.067 469.533 201.2 471.8C203.467 474.067 206.133 475.933 209.2 477.4C212.267 478.733 215.733 479.4 219.6 479.4C227.6 479.4 234.067 476.733 239 471.4C244.067 466.067 246.6 457.8 246.6 446.6C246.6 444.2 246.333 441.267 245.8 437.8C245.267 434.333 243.867 431 241.6 427.8C239.467 424.467 236.067 421.667 231.4 419.4C226.733 417.133 220.333 416 212.2 416V407.2ZM322.644 486H305.644V364.8L290.244 380.8L284.844 375.2L313.044 346H322.644V486Z" fill="black"/>
<path d="M609.8 486H592.8V364.8L577.4 380.8L572 375.2L600.2 346H609.8V486Z" fill="black"/>
<path d="M994.8 486H902.8L940.6 443.8C943.933 439.8 947.467 435.467 951.2 430.8C955.067 426.133 958.6 421.2 961.8 416C965 410.8 967.667 405.4 969.8 399.8C971.933 394.2 973 388.467 973 382.6C973 373.4 970.533 366.067 965.6 360.6C960.8 355.133 954.6 352.4 947 352.4C942.467 352.4 938.667 353.267 935.6 355C932.667 356.733 930.2 359.067 928.2 362C926.333 364.8 924.933 368.133 924 372C923.067 375.733 922.4 379.667 922 383.8H902C902 378.2 903.133 372.933 905.4 368C907.667 363.067 910.8 358.8 914.8 355.2C918.933 351.6 923.733 348.8 929.2 346.8C934.667 344.667 940.6 343.6 947 343.6C954.2 343.6 960.667 344.667 966.4 346.8C972.133 348.8 976.933 351.6 980.8 355.2C984.667 358.8 987.6 363 989.6 367.8C991.733 372.467 992.8 377.4 992.8 382.6C992.8 389.133 992.133 394.733 990.8 399.4C989.6 404.067 987.6 408.6 984.8 413C982.133 417.267 978.6 421.8 974.2 426.6C969.933 431.4 964.733 437.133 958.6 443.8L932.6 471.6H994.8V486Z" fill="black"/>
<line y1="-1.5" x2="1022" y2="-1.5" transform="matrix(0.999998 -0.0019037 0.00201168 0.999998 89 137.448)" stroke="black" stroke-width="3"/>
<line y1="-1.5" x2="1022" y2="-1.5" transform="matrix(0.999998 -0.00200308 0.00191187 0.999998 89 191.645)" stroke="black" stroke-width="3"/>
<line y1="-1.5" x2="372.583" y2="-1.5" transform="matrix(0.000151776 1 -1 0.000159017 439.943 136.369)" stroke="black" stroke-width="3"/>
<line x1="795.5" y1="136" x2="795.5" y2="511" stroke="black" stroke-width="3"/>
<line x1="88.9971" y1="509.5" x2="1111" y2="507.5" stroke="black" stroke-width="3"/>
<path d="M435.216 700C433.744 700 432.4 699.648 431.184 698.944C430.032 698.176 429.456 697.088 429.456 695.68C429.456 695.168 429.552 694.624 429.744 694.048C429.936 693.408 430.192 692.928 430.512 692.608C430.512 693.312 430.736 693.952 431.184 694.528C431.632 695.04 432.144 695.456 432.72 695.776C433.296 696.032 433.84 696.224 434.352 696.352C434.928 696.48 435.44 696.544 435.888 696.544C437.36 696.544 438.512 696.032 439.344 695.008C440.176 693.92 440.592 692.768 440.592 691.552C440.592 690.464 440.304 689.504 439.728 688.672C439.344 688.16 438.928 687.712 438.48 687.328C438.032 686.88 437.552 686.432 437.04 685.984C436.656 685.664 436.304 685.28 435.984 684.832C435.664 684.384 435.248 683.712 434.736 682.816L430.704 688.96C429.744 690.368 428.848 691.68 428.016 692.896C427.184 694.112 426.096 695.52 424.752 697.12C424.368 697.568 424.08 697.792 423.888 697.792C423.632 697.728 423.664 697.472 423.984 697.024C425.456 695.168 426.672 693.568 427.632 692.224C428.592 690.88 429.712 689.248 430.992 687.328C431.632 686.432 432.272 685.408 432.912 684.256C433.616 683.104 434.128 681.92 434.448 680.704C434.448 678.72 435.12 676.992 436.464 675.52C437.808 673.984 439.44 672.832 441.36 672.064C443.344 671.232 445.2 670.912 446.928 671.104C447.312 671.104 447.728 671.392 448.176 671.968C448.624 672.544 449.008 673.184 449.328 673.888C449.648 674.528 449.808 675.04 449.808 675.424C449.808 675.616 449.744 675.712 449.616 675.712C449.424 675.712 449.168 675.584 448.848 675.328C448.336 674.88 447.568 674.656 446.544 674.656C445.2 674.656 443.728 675.04 442.128 675.808C440.528 676.512 439.12 677.44 437.904 678.592C436.752 679.68 436.176 680.832 436.176 682.048C436.176 682.944 436.528 683.776 437.232 684.544C438 685.312 438.832 686.048 439.728 686.752C440.688 687.392 441.456 688.096 442.032 688.864C442.672 689.568 443.12 690.272 443.376 690.976C443.632 691.68 443.76 692.384 443.76 693.088C443.76 694.304 443.376 695.424 442.608 696.448C441.84 697.408 440.912 698.208 439.824 698.848C438.48 699.616 436.944 700 435.216 700ZM450.8 701.056C449.456 701.056 448.432 700.416 447.728 699.136C447.088 697.792 446.768 696.64 446.768 695.68C446.768 693.44 447.44 691.104 448.784 688.672C450.128 686.24 451.824 683.936 453.872 681.76C455.984 679.584 458.192 677.824 460.496 676.48C462.8 675.136 464.944 674.464 466.928 674.464C467.504 674.464 468.144 674.72 468.848 675.232C469.616 675.68 470.32 676.416 470.96 677.44C471.088 677.568 471.248 677.856 471.44 678.304C471.632 678.688 471.632 679.04 471.44 679.36L471.344 679.168C471.216 678.848 470.928 678.592 470.48 678.4C470.032 678.144 469.36 678.016 468.464 678.016C466.992 678.016 465.328 678.528 463.472 679.552C461.68 680.576 459.856 681.952 458 683.68C456.208 685.408 454.576 687.296 453.104 689.344C451.632 691.392 450.544 693.472 449.84 695.584C449.392 696.672 449.168 697.6 449.168 698.368C449.168 699.328 449.52 699.808 450.224 699.808C450.736 699.808 451.344 699.552 452.048 699.04C453.392 698.016 454.8 696.704 456.272 695.104C457.744 693.504 459.152 691.84 460.496 690.112C461.904 688.384 463.12 686.784 464.144 685.312C465.232 683.84 466 682.752 466.448 682.048C466.64 681.792 466.864 681.664 467.12 681.664C467.44 681.6 467.824 681.568 468.272 681.568C469.552 681.568 470.352 681.792 470.672 682.24C471.056 682.624 471.088 683.04 470.768 683.488C469.936 684.704 469.04 686.112 468.08 687.712C467.184 689.312 466.384 690.88 465.68 692.416C465.04 693.952 464.72 695.328 464.72 696.544C464.72 697.504 465.104 697.984 465.872 697.984C466.576 697.984 467.344 697.568 468.176 696.736C468.944 696.032 469.84 695.008 470.864 693.664C471.952 692.32 473.008 690.912 474.032 689.44C475.12 687.968 476.016 686.688 476.72 685.6C476.976 685.28 477.168 685.152 477.296 685.216C477.488 685.216 477.488 685.408 477.296 685.792C476.272 687.392 475.216 689.056 474.128 690.784C473.04 692.448 471.888 694.016 470.672 695.488C468.368 698.432 466.64 699.904 465.488 699.904C464.464 699.904 463.504 699.584 462.608 698.944C461.712 698.304 461.264 697.376 461.264 696.16C461.264 694.88 461.52 693.408 462.032 691.744C462.608 690.016 463.12 688.672 463.568 687.712C462.224 689.76 460.688 691.808 458.96 693.856C457.232 695.904 455.6 697.632 454.064 699.04C452.592 700.384 451.504 701.056 450.8 701.056ZM480.899 701.344C478.723 701.344 477.187 700.64 476.291 699.232C475.459 697.824 475.043 696.16 475.043 694.24C475.043 692.768 475.235 691.264 475.619 689.728C476.003 688.192 476.515 686.816 477.155 685.6C476.643 685.344 476.451 685.088 476.579 684.832C477.091 684.256 477.667 683.488 478.307 682.528C478.947 681.504 479.619 680.544 480.323 679.648C481.091 678.688 481.795 677.856 482.435 677.152C483.075 676.448 483.619 676.032 484.067 675.904C484.259 675.84 484.419 675.808 484.547 675.808C484.739 675.744 484.899 675.712 485.027 675.712C485.347 675.712 485.603 675.808 485.795 676C485.987 676.128 486.179 676.32 486.371 676.576C486.691 676.896 486.883 677.184 486.947 677.44C487.011 677.632 487.267 677.824 487.715 678.016C486.883 678.912 486.051 679.84 485.219 680.8C484.387 681.696 483.651 682.592 483.011 683.488C481.987 684.96 480.931 686.752 479.843 688.864C478.819 690.976 478.307 693.248 478.307 695.68C478.307 697.088 478.595 698.144 479.171 698.848C479.747 699.552 480.483 699.904 481.379 699.904C482.083 699.904 482.819 699.712 483.587 699.328C484.355 698.88 485.123 698.24 485.891 697.408C487.427 695.808 488.867 694.016 490.211 692.032C491.619 689.984 492.835 687.936 493.859 685.888C494.883 683.776 495.619 681.856 496.067 680.128C496.515 678.656 496.803 677.184 496.931 675.712C497.123 674.24 497.219 673.12 497.219 672.352C497.923 672.096 498.563 671.968 499.139 671.968C499.971 671.968 500.547 672.224 500.867 672.736C501.187 673.248 501.347 673.888 501.347 674.656C501.347 675.808 501.123 676.928 500.675 678.016C500.291 678.976 499.715 679.904 498.947 680.8C498.243 681.632 497.507 682.4 496.739 683.104C495.139 685.792 493.475 688.544 491.747 691.36C490.019 694.112 488.035 696.64 485.795 698.944C484.963 699.776 484.099 700.384 483.203 700.768C482.371 701.152 481.603 701.344 480.899 701.344ZM505.457 701.248C503.729 701.248 502.129 700.64 500.657 699.424C499.249 698.144 498.545 696.288 498.545 693.856C498.545 691.936 499.057 689.856 500.081 687.616C501.105 685.376 502.417 683.232 504.017 681.184C505.681 679.136 507.441 677.44 509.297 676.096C511.153 674.752 512.881 674.048 514.481 673.984C514.737 674.24 515.025 674.432 515.345 674.56C515.729 674.688 516.081 674.816 516.401 674.944L518.897 675.52C520.305 675.904 521.009 676.8 521.009 678.208C521.009 679.04 520.721 679.936 520.145 680.896C519.633 681.856 518.833 682.688 517.745 683.392C517.169 683.776 516.529 684.16 515.825 684.544C515.185 684.928 514.513 685.312 513.809 685.696L509.489 688C508.145 688.704 506.961 689.472 505.937 690.304C504.913 691.072 504.177 691.904 503.729 692.8C503.729 692.8 503.633 692.832 503.441 692.896C503.313 692.896 503.281 692.768 503.345 692.512C503.793 691.424 504.657 690.336 505.937 689.248C507.281 688.096 508.625 687.104 509.969 686.272C510.609 685.76 511.249 685.312 511.889 684.928C512.593 684.544 513.265 684.128 513.905 683.68C514.545 683.232 515.153 682.784 515.729 682.336C516.369 681.824 516.913 681.344 517.361 680.896C517.873 680.384 518.225 679.872 518.417 679.36C518.673 678.848 518.801 678.4 518.801 678.016C518.801 676.8 518.097 676.192 516.689 676.192C515.793 676.192 514.769 676.576 513.617 677.344C512.209 678.304 510.865 679.456 509.585 680.8C508.305 682.08 507.089 683.488 505.937 685.024C504.721 686.688 503.633 688.608 502.673 690.784C501.777 692.96 501.329 694.784 501.329 696.256C501.329 697.728 501.745 698.784 502.577 699.424C503.473 700 504.497 700.288 505.649 700.288C507.249 700.288 508.785 699.872 510.257 699.04C511.345 698.4 512.369 697.6 513.329 696.64C514.289 695.616 515.089 694.72 515.729 693.952C516.241 693.312 516.817 692.544 517.457 691.648C518.161 690.752 518.641 690.08 518.897 689.632C519.025 689.504 519.121 689.504 519.185 689.632C519.249 689.76 519.281 689.856 519.281 689.92C519.025 690.368 518.577 691.104 517.937 692.128C517.361 693.088 516.497 694.304 515.345 695.776C514.001 697.504 512.593 698.848 511.121 699.808C509.649 700.768 507.761 701.248 505.457 701.248ZM541.453 701.44C539.597 701.44 537.997 700.736 536.653 699.328C535.373 697.92 534.733 696 534.733 693.568C534.733 692.672 534.829 691.712 535.021 690.688C535.277 689.6 535.629 688.48 536.077 687.328C537.037 685.088 538.349 682.944 540.013 680.896C541.741 678.848 543.597 677.152 545.581 675.808C547.565 674.464 549.453 673.792 551.245 673.792C551.437 673.792 551.661 673.888 551.917 674.08C552.173 674.208 552.365 674.336 552.493 674.464L552.973 674.944C553.741 675.712 554.477 676.16 555.181 676.288C555.949 676.416 556.557 676.8 557.005 677.44C557.773 678.656 558.157 680.128 558.157 681.856C558.157 684.224 557.421 686.816 555.949 689.632C554.541 692.384 552.621 694.88 550.189 697.12C548.973 698.208 547.629 699.2 546.157 700.096C544.685 700.992 543.117 701.44 541.453 701.44ZM542.125 700.384C543.661 700.384 545.229 699.872 546.829 698.848C548.429 697.76 549.901 696.352 551.245 694.624C552.653 692.896 553.837 691.072 554.797 689.152C555.821 687.232 556.461 685.408 556.717 683.68C556.781 683.36 556.813 683.04 556.813 682.72C556.877 682.336 556.909 682.016 556.909 681.76C556.909 680.032 556.493 678.784 555.661 678.016C554.829 677.184 553.837 676.768 552.685 676.768C551.469 676.768 550.221 677.152 548.941 677.92C547.725 678.624 546.189 680.096 544.333 682.336C542.477 684.512 540.813 686.784 539.341 689.152C537.997 691.264 537.325 693.312 537.325 695.296C537.325 696.704 537.709 697.92 538.477 698.944C539.309 699.904 540.525 700.384 542.125 700.384ZM563.506 700.288C562.098 700.288 561.01 699.968 560.242 699.328C559.538 698.688 559.25 697.856 559.378 696.832C559.506 696.128 559.698 695.328 559.954 694.432C560.21 693.536 560.53 692.64 560.914 691.744L563.218 686.368C563.154 686.24 563.09 686.144 563.026 686.08C563.026 685.952 563.026 685.856 563.026 685.792C562.962 685.536 562.994 685.312 563.122 685.12C564.786 682.56 566.322 680.416 567.73 678.688C569.138 676.96 570.066 676.096 570.514 676.096C571.41 676.096 572.466 676.704 573.682 677.92C572.85 678.944 571.986 680.096 571.09 681.376C570.194 682.592 569.33 683.84 568.498 685.12C567.602 686.464 566.642 687.936 565.618 689.536C564.658 691.072 563.986 692.48 563.602 693.76C563.218 694.912 563.026 695.808 563.026 696.448C563.026 697.344 563.346 697.792 563.986 697.792C564.818 697.792 566.034 696.928 567.634 695.2C568.722 694.048 569.906 692.64 571.186 690.976C572.53 689.248 573.81 687.52 575.026 685.792C576.306 684 577.49 682.336 578.578 680.8C579.73 679.2 580.69 677.92 581.458 676.96C582.162 676.064 582.802 675.616 583.378 675.616C584.21 675.616 585.17 676.32 586.258 677.728C585.362 679.008 584.274 680.672 582.994 682.72C581.714 684.704 580.53 686.752 579.442 688.864C578.418 690.912 577.746 692.736 577.426 694.336C577.362 694.592 577.298 694.848 577.234 695.104C577.234 695.36 577.234 695.648 577.234 695.968C577.234 697.824 577.714 698.752 578.674 698.752C579.186 698.752 579.794 698.464 580.498 697.888C581.266 697.312 582.002 696.64 582.706 695.872C583.41 695.104 583.954 694.464 584.338 693.952C586.386 691.2 588.338 688.352 590.194 685.408C590.578 684.832 590.834 684.544 590.962 684.544C591.09 684.544 591.122 684.672 591.058 684.928C591.058 685.12 591.026 685.28 590.962 685.408C589.682 687.52 588.178 689.824 586.45 692.32C584.786 694.816 583.122 696.864 581.458 698.464C580.562 699.36 579.666 699.808 578.77 699.808C577.042 699.808 575.762 699.392 574.93 698.56C574.098 697.728 573.682 696.8 573.682 695.776C573.682 695.136 573.778 694.464 573.97 693.76C574.162 692.992 574.386 692.224 574.642 691.456L577.234 684.64C576.274 685.856 575.474 686.88 574.834 687.712C574.194 688.48 573.618 689.216 573.106 689.92C572.658 690.56 572.146 691.296 571.57 692.128C570.994 692.896 570.386 693.664 569.746 694.432C568.53 696.032 567.346 697.408 566.194 698.56C565.042 699.712 564.146 700.288 563.506 700.288ZM597.601 701.248C596.065 701.248 595.009 700.736 594.433 699.712C593.857 698.624 593.665 697.472 593.857 696.256C594.113 694.592 594.561 693.248 595.201 692.224C595.905 691.2 596.737 690.08 597.697 688.864C598.465 687.776 599.201 686.656 599.905 685.504C600.609 684.352 600.705 683.68 600.193 683.488C599.873 683.744 599.329 684.032 598.561 684.352C597.793 684.672 596.993 684.832 596.161 684.832C595.457 684.832 594.753 684.672 594.049 684.352C593.409 684.032 592.929 683.456 592.609 682.624C591.777 684.16 590.753 685.856 589.537 687.712C588.385 689.504 587.201 691.232 585.985 692.896C584.833 694.56 583.809 695.936 582.913 697.024C582.657 697.28 582.433 697.376 582.241 697.312C581.985 697.248 581.953 697.088 582.145 696.832C583.617 694.976 585.313 692.64 587.233 689.824C589.153 687.008 590.913 683.968 592.513 680.704C594.113 677.376 595.105 674.144 595.489 671.008C597.665 672.032 598.753 673.344 598.753 674.944C598.753 676.16 598.241 677.408 597.217 678.688C596.193 679.904 594.849 681.024 593.185 682.048C594.017 683.264 595.073 683.872 596.353 683.872C597.313 683.872 598.273 683.584 599.233 683.008C600.257 682.368 601.057 681.664 601.633 680.896C602.145 680.32 602.561 679.936 602.881 679.744C603.265 679.552 603.585 679.456 603.841 679.456C604.737 679.456 605.377 679.744 605.761 680.32C606.209 680.832 606.273 681.408 605.953 682.048C604.801 683.648 603.489 685.632 602.017 688C600.545 690.304 599.233 692.48 598.081 694.528C597.889 694.784 597.633 695.36 597.313 696.256C596.993 697.152 596.833 697.952 596.833 698.656C596.833 699.616 597.217 700.096 597.985 700.096C598.881 700.096 599.905 699.584 601.057 698.56C602.209 697.472 603.361 696.192 604.513 694.72C605.665 693.184 606.689 691.712 607.585 690.304C608.545 688.896 609.249 687.872 609.697 687.232C610.017 686.656 610.273 686.368 610.465 686.368C610.529 686.368 610.561 686.432 610.561 686.56C610.561 686.816 610.465 687.104 610.273 687.424C609.313 689.024 608.289 690.624 607.201 692.224C606.113 693.824 605.025 695.36 603.937 696.832C602.913 698.176 601.857 699.232 600.769 700C599.745 700.832 598.689 701.248 597.601 701.248ZM628.397 701.056C627.437 701.056 626.541 700.736 625.709 700.096C624.877 699.456 624.205 698.72 623.693 697.888C623.181 697.056 622.925 696.352 622.925 695.776C622.925 693.6 623.597 691.328 624.941 688.96C626.285 686.528 627.981 684.256 630.029 682.144C632.141 680.032 634.349 678.336 636.653 677.056C638.957 675.712 641.101 675.04 643.085 675.04C643.405 675.04 643.725 675.104 644.045 675.232C644.365 675.36 644.781 675.648 645.293 676.096C647.853 670.784 650.669 665.568 653.741 660.448C656.813 655.264 659.789 650.976 662.669 647.584C665.165 644.576 667.693 642.272 670.253 640.672C672.877 639.008 675.565 637.856 678.317 637.216C680.237 636.704 682.221 636.448 684.269 636.448C684.589 636.448 684.941 636.448 685.325 636.448C685.709 636.448 686.061 636.48 686.381 636.544C687.021 636.608 687.757 636.8 688.589 637.12C689.421 637.44 689.901 637.792 690.029 638.176C690.157 638.432 690.157 638.592 690.029 638.656C689.901 638.72 689.741 638.656 689.549 638.464C689.101 638.08 688.525 637.824 687.821 637.696C687.181 637.504 686.477 637.408 685.709 637.408C684.493 637.408 683.277 637.568 682.061 637.888C680.845 638.208 679.885 638.528 679.181 638.848C677.069 639.936 674.893 641.472 672.653 643.456C670.413 645.376 668.205 647.584 666.029 650.08C662.893 653.664 659.917 657.568 657.101 661.792C654.349 666.016 651.885 670.24 649.709 674.464C647.597 678.688 645.933 682.624 644.717 686.272C643.565 689.92 642.989 692.992 642.989 695.488C642.989 695.872 642.989 696.256 642.989 696.64C643.053 696.96 643.117 697.28 643.181 697.6C643.373 698.432 643.693 699.008 644.141 699.328C644.589 699.648 645.101 699.808 645.677 699.808C646.317 699.808 646.925 699.68 647.501 699.424C648.141 699.104 648.685 698.752 649.133 698.368C650.349 697.28 651.725 695.712 653.261 693.664C654.861 691.616 656.365 689.568 657.773 687.52C658.029 687.2 658.189 687.104 658.253 687.232C658.317 687.36 658.285 687.488 658.157 687.616C657.901 688.064 657.325 688.96 656.429 690.304C655.533 691.648 654.509 693.088 653.357 694.624C652.269 696.16 651.213 697.44 650.189 698.464C648.525 700.128 646.829 700.96 645.101 700.96C643.821 700.96 642.733 700.416 641.837 699.328C640.941 698.24 640.493 696.704 640.493 694.72C640.493 694.08 640.557 693.024 640.685 691.552C640.813 690.08 641.005 688.832 641.261 687.808C639.789 690.24 638.253 692.48 636.653 694.528C635.117 696.512 633.613 698.112 632.141 699.328C630.733 700.48 629.485 701.056 628.397 701.056ZM627.725 699.808C628.301 699.808 628.941 699.552 629.645 699.04C630.797 698.144 632.077 696.928 633.484 695.392C634.957 693.856 636.397 692.224 637.805 690.496C639.277 688.704 640.557 687.008 641.645 685.408C641.965 684.384 642.413 683.168 642.989 681.76C643.565 680.352 644.077 679.072 644.525 677.92C643.693 677.792 642.733 677.92 641.645 678.304C640.621 678.624 639.885 678.912 639.437 679.168C637.709 680.192 635.885 681.632 633.965 683.488C632.109 685.28 630.445 687.232 628.973 689.344C627.501 691.392 626.413 693.376 625.709 695.296C625.517 695.744 625.421 696.256 625.421 696.832C625.421 697.6 625.613 698.304 625.997 698.944C626.445 699.52 627.021 699.808 627.725 699.808ZM658.925 701.056C657.581 701.056 656.557 700.416 655.853 699.136C655.213 697.792 654.893 696.64 654.893 695.68C654.893 693.44 655.565 691.104 656.909 688.672C658.253 686.24 659.949 683.936 661.997 681.76C664.109 679.584 666.317 677.824 668.621 676.48C670.925 675.136 673.069 674.464 675.053 674.464C675.629 674.464 676.269 674.72 676.973 675.232C677.741 675.68 678.445 676.416 679.085 677.44C679.213 677.568 679.373 677.856 679.565 678.304C679.757 678.688 679.757 679.04 679.565 679.36L679.469 679.168C679.341 678.848 679.053 678.592 678.605 678.4C678.157 678.144 677.485 678.016 676.589 678.016C675.117 678.016 673.453 678.528 671.597 679.552C669.805 680.576 667.981 681.952 666.125 683.68C664.333 685.408 662.701 687.296 661.229 689.344C659.757 691.392 658.669 693.472 657.965 695.584C657.517 696.672 657.293 697.6 657.293 698.368C657.293 699.328 657.645 699.808 658.349 699.808C658.861 699.808 659.469 699.552 660.173 699.04C661.517 698.016 662.925 696.704 664.397 695.104C665.869 693.504 667.277 691.84 668.621 690.112C670.029 688.384 671.245 686.784 672.269 685.312C673.357 683.84 674.125 682.752 674.573 682.048C674.765 681.792 674.989 681.664 675.245 681.664C675.565 681.6 675.949 681.568 676.397 681.568C677.677 681.568 678.477 681.792 678.797 682.24C679.181 682.624 679.213 683.04 678.893 683.488C678.061 684.704 677.165 686.112 676.205 687.712C675.309 689.312 674.509 690.88 673.805 692.416C673.165 693.952 672.845 695.328 672.845 696.544C672.845 697.504 673.229 697.984 673.997 697.984C674.701 697.984 675.469 697.568 676.301 696.736C677.069 696.032 677.965 695.008 678.989 693.664C680.077 692.32 681.133 690.912 682.157 689.44C683.245 687.968 684.141 686.688 684.845 685.6C685.101 685.28 685.293 685.152 685.421 685.216C685.613 685.216 685.613 685.408 685.421 685.792C684.397 687.392 683.341 689.056 682.253 690.784C681.165 692.448 680.013 694.016 678.797 695.488C676.493 698.432 674.765 699.904 673.613 699.904C672.589 699.904 671.629 699.584 670.733 698.944C669.837 698.304 669.389 697.376 669.389 696.16C669.389 694.88 669.645 693.408 670.157 691.744C670.733 690.016 671.245 688.672 671.693 687.712C670.349 689.76 668.813 691.808 667.085 693.856C665.357 695.904 663.725 697.632 662.189 699.04C660.717 700.384 659.629 701.056 658.925 701.056ZM687.68 701.44C686.336 701.44 685.152 700.896 684.128 699.808C683.168 698.72 682.688 697.152 682.688 695.104C682.688 693.568 683.04 691.712 683.744 689.536C684.512 687.296 685.44 684.96 686.528 682.528C687.68 680.032 688.864 677.696 690.08 675.52C691.36 673.28 692.48 671.392 693.44 669.856C692.352 669.856 691.392 669.856 690.56 669.856C689.728 669.792 689.056 669.792 688.544 669.856C688.096 669.856 687.808 669.792 687.68 669.664C687.616 669.472 687.616 669.344 687.68 669.28C687.68 669.088 687.776 668.832 687.968 668.512C688.224 668.192 688.448 668.032 688.64 668.032H694.496C694.816 667.648 695.232 666.976 695.744 666.016C696.32 665.056 696.896 664.032 697.472 662.944C698.048 661.856 698.528 660.896 698.912 660.064C699.36 659.168 699.584 658.624 699.584 658.432C699.584 657.856 699.392 657.44 699.008 657.184C698.752 657.056 698.624 656.992 698.624 656.992C698.56 656.992 698.528 656.992 698.528 656.992C698.528 656.928 698.496 656.896 698.432 656.896C698.368 656.832 698.336 656.736 698.336 656.608C698.336 656.416 698.432 656.288 698.624 656.224C698.816 656.096 698.976 656.032 699.104 656.032C699.488 656.032 699.84 656.128 700.16 656.32C700.544 656.448 701.152 656.736 701.984 657.184C702.368 657.376 702.752 657.568 703.136 657.76C703.584 657.888 703.936 658.048 704.192 658.24L704.96 658.72C704.576 659.36 703.968 660.256 703.136 661.408C702.368 662.56 701.6 663.744 700.832 664.96C700.064 666.176 699.424 667.2 698.912 668.032H716.096C716.864 668.032 717.248 668.128 717.248 668.32C717.248 668.512 716.96 668.736 716.384 668.992C715.872 669.184 715.488 669.28 715.232 669.28C714.4 669.344 713.216 669.376 711.68 669.376C710.208 669.376 708.608 669.408 706.88 669.472C705.216 669.472 703.648 669.536 702.176 669.664C700.768 669.728 699.776 669.856 699.2 670.048C698.24 670.368 697.152 671.424 695.936 673.216C694.72 674.944 693.536 676.992 692.384 679.36C691.296 681.728 690.304 684.032 689.408 686.272C689.216 686.784 688.864 687.648 688.352 688.864C687.904 690.08 687.456 691.392 687.008 692.8C686.624 694.208 686.432 695.52 686.432 696.736C686.432 697.888 686.656 698.72 687.104 699.232C687.552 699.744 688.096 700 688.736 700C689.504 700 690.368 699.552 691.328 698.656C692.352 697.76 693.472 696.608 694.688 695.2C695.968 693.6 697.152 692 698.24 690.4C699.392 688.736 700.128 687.616 700.448 687.04C700.96 686.208 701.28 685.792 701.408 685.792C701.472 685.792 701.504 685.824 701.504 685.888C701.504 686.08 701.408 686.432 701.216 686.944C701.024 687.392 700.832 687.776 700.64 688.096C699.488 689.76 698.24 691.616 696.896 693.664C695.552 695.712 694.176 697.472 692.768 698.944C691.104 700.608 689.408 701.44 687.68 701.44ZM705.426 701.248C703.698 701.248 702.098 700.64 700.626 699.424C699.218 698.144 698.514 696.288 698.514 693.856C698.514 691.936 699.026 689.856 700.05 687.616C701.074 685.376 702.386 683.232 703.986 681.184C705.65 679.136 707.41 677.44 709.266 676.096C711.122 674.752 712.85 674.048 714.45 673.984C714.706 674.24 714.994 674.432 715.314 674.56C715.698 674.688 716.05 674.816 716.37 674.944L718.866 675.52C720.274 675.904 720.978 676.8 720.978 678.208C720.978 679.04 720.69 679.936 720.114 680.896C719.602 681.856 718.802 682.688 717.714 683.392C717.138 683.776 716.498 684.16 715.794 684.544C715.154 684.928 714.482 685.312 713.778 685.696L709.458 688C708.114 688.704 706.93 689.472 705.906 690.304C704.882 691.072 704.146 691.904 703.698 692.8C703.698 692.8 703.602 692.832 703.41 692.896C703.282 692.896 703.25 692.768 703.314 692.512C703.762 691.424 704.626 690.336 705.906 689.248C707.25 688.096 708.594 687.104 709.938 686.272C710.578 685.76 711.218 685.312 711.858 684.928C712.562 684.544 713.234 684.128 713.874 683.68C714.514 683.232 715.122 682.784 715.698 682.336C716.338 681.824 716.882 681.344 717.33 680.896C717.842 680.384 718.194 679.872 718.386 679.36C718.642 678.848 718.77 678.4 718.77 678.016C718.77 676.8 718.066 676.192 716.658 676.192C715.762 676.192 714.738 676.576 713.586 677.344C712.178 678.304 710.834 679.456 709.554 680.8C708.274 682.08 707.058 683.488 705.906 685.024C704.69 686.688 703.602 688.608 702.642 690.784C701.746 692.96 701.298 694.784 701.298 696.256C701.298 697.728 701.714 698.784 702.546 699.424C703.442 700 704.466 700.288 705.618 700.288C707.218 700.288 708.754 699.872 710.226 699.04C711.314 698.4 712.338 697.6 713.298 696.64C714.258 695.616 715.058 694.72 715.698 693.952C716.21 693.312 716.786 692.544 717.426 691.648C718.13 690.752 718.61 690.08 718.866 689.632C718.994 689.504 719.09 689.504 719.154 689.632C719.218 689.76 719.25 689.856 719.25 689.92C718.994 690.368 718.546 691.104 717.906 692.128C717.33 693.088 716.466 694.304 715.314 695.776C713.97 697.504 712.562 698.848 711.09 699.808C709.618 700.768 707.73 701.248 705.426 701.248ZM729.617 689.056C729.233 689.056 728.849 688.992 728.465 688.864C727.825 688.544 727.345 688.256 727.025 688C726.769 687.68 726.641 687.264 726.641 686.752C726.641 686.304 726.737 685.696 726.929 684.928C727.505 682.304 728.529 679.424 730.001 676.288C731.473 673.088 733.169 669.856 735.089 666.592C737.009 663.328 738.833 660.32 740.561 657.568C740.817 657.248 740.913 656.928 740.849 656.608C740.849 656.224 740.881 655.904 740.945 655.648C741.265 654.24 741.905 652.768 742.865 651.232C743.889 649.632 745.009 648.096 746.225 646.624C747.505 645.152 748.689 643.936 749.777 642.976C750.033 642.912 750.353 642.88 750.737 642.88C751.121 642.88 751.537 642.88 751.985 642.88C753.009 642.88 753.937 642.976 754.769 643.168C755.665 643.36 755.857 643.776 755.345 644.416C751.185 650.048 747.665 654.848 744.785 658.816C741.905 662.72 739.505 666.112 737.585 668.992C735.665 671.872 734.097 674.56 732.881 677.056C731.665 679.488 730.609 682.08 729.713 684.832C729.585 685.216 729.521 685.504 729.521 685.696C729.521 686.08 729.681 686.272 730.001 686.272C730.193 686.272 730.417 686.24 730.673 686.176C730.929 686.112 731.217 685.952 731.537 685.696C732.113 685.312 732.689 684.768 733.265 684.064C733.841 683.36 734.353 682.784 734.801 682.336C734.993 682.144 735.153 682.048 735.281 682.048C735.601 682.048 735.601 682.336 735.281 682.912C735.089 683.296 734.673 683.968 734.033 684.928C733.457 685.888 732.849 686.784 732.209 687.616C731.569 688.448 731.089 688.896 730.769 688.96C730.705 688.96 730.545 688.992 730.289 689.056C730.097 689.056 729.873 689.056 729.617 689.056ZM726.353 701.056C725.713 701.056 725.041 700.736 724.337 700.096C723.633 699.52 723.217 698.752 723.089 697.792C723.089 697.664 723.057 697.568 722.993 697.504C722.993 697.376 722.993 697.28 722.993 697.216C722.993 696.896 723.089 696.672 723.281 696.544C723.473 696.416 723.761 696.256 724.145 696.064C724.913 695.68 725.553 695.328 726.065 695.008C726.641 694.624 727.345 694.208 728.177 693.76C728.433 693.632 728.593 693.568 728.657 693.568C728.849 693.568 728.945 693.728 728.945 694.048C728.945 694.368 728.881 694.752 728.753 695.2C728.625 695.648 728.497 695.936 728.369 696.064C728.305 696.128 728.113 696.448 727.793 697.024C727.473 697.536 727.185 698.112 726.929 698.752C726.737 699.328 726.705 699.744 726.833 700C726.897 700.064 726.929 700.128 726.929 700.192C726.929 700.32 726.865 700.48 726.737 700.672C726.609 700.928 726.481 701.056 726.353 701.056Z" fill="black"/>
</g>
<defs>
<filter id="filter0_d_2004_18" x="428.27" y="78.9912" width="362.459" height="533.831" filterUnits="userSpaceOnUse" color-interpolation-filters="sRGB">
<feFlood flood-opacity="0" result="BackgroundImageFix"/>
<feColorMatrix in="SourceAlpha" type="matrix" values="0 0 0 0 0 0 0 0 0 0 0 0 0 0 0 0 0 0 127 0" result="hardAlpha"/>
<feOffset dy="4"/>
<feGaussianBlur stdDeviation="2"/>
<feComposite in2="hardAlpha" operator="out"/>
<feColorMatrix type="matrix" values="0 0 0 0 0 0 0 0 0 0 0 0 0 0 0 0 0 0 0.25 0"/>
<feBlend mode="normal" in2="BackgroundImageFix" result="effect1_dropShadow_2004_18"/>
<feBlend mode="normal" in="SourceGraphic" in2="effect1_dropShadow_2004_18" result="shape"/>
</filter>
<clipPath id="clip0_2004_18">
<rect width="1200" height="751" fill="white"/>
</clipPath>
</defs>
</svg>
