<svg width="98" height="106" viewBox="0 0 98 106" fill="none" xmlns="http://www.w3.org/2000/svg">
<path d="M95.3561 37.1428L59.8754 89.1694C55.5287 95.5431 48.5988 100.326 40.61 102.467C32.6213 104.607 24.2281 103.93 17.277 100.584C10.3259 97.2372 5.38612 91.4959 3.54447 84.6228C1.70282 77.7497 3.11012 70.3077 7.45677 63.934L42.9375 11.9074C45.8353 7.65829 50.4552 4.46946 55.7811 3.0424C61.1069 1.61535 66.7023 2.06697 71.3364 4.29792C75.9705 6.52887 79.2637 10.3564 80.4915 14.9385C81.7192 19.5206 80.781 24.4819 77.8833 28.731L42.3523 80.7711C40.9035 82.8956 38.5935 84.49 35.9306 85.2036C33.2676 85.9171 30.4699 85.6913 28.1529 84.5758C25.8358 83.4603 24.1893 81.5466 23.5754 79.2555C22.9615 76.9645 23.4306 74.4838 24.8795 72.3593L57.6692 24.3387" stroke="#1E1E1E" stroke-width="4" stroke-linecap="round" stroke-linejoin="round"/>
</svg>
