<svg width="695" height="464" viewBox="0 0 695 464" fill="none" xmlns="http://www.w3.org/2000/svg">
<path d="M668 436.111C642 456.111 392.8 473.711 92 448.111C92 448.111 52 428.111 44 402.111C36 376.111 56 357.111 92 330.111C128 303.111 92 270.111 92 270.111C92 270.111 48 256.111 28 250.111C7.99997 244.111 1.43051e-06 202.111 4 170.111C8 138.111 44 118.111 92 88.1111C140 58.1111 490 76.1111 536 74.1111C582 72.1111 536 52.1111 582 18.1111C628 -15.8889 656 18.1111 656 18.1111C656 18.1111 680 42.1109 688 88.1111C696 134.111 694 416.112 668 436.111Z" stroke="#950002" stroke-width="5" stroke-linejoin="bevel"/>
</svg>
