<svg width="903" height="427" viewBox="0 0 903 427" fill="none" xmlns="http://www.w3.org/2000/svg">
<path d="M343.63 35.3461C409.037 -7.91611 493.963 -7.91613 559.37 35.3461L580.087 49.0488C601.732 63.365 627.333 70.5062 653.262 69.4605L813.212 63.0095C849.478 61.5468 871.11 102.923 849.213 131.87C830.636 156.426 839.677 191.877 867.745 204.538L872.009 206.462C914.225 225.504 905.966 287.763 860.246 295.14L787.883 306.817C760.123 311.296 737.328 331.176 729.116 358.07L726.752 365.814C713.953 407.729 670.369 432.085 627.963 421.021L503.753 388.611C469.491 379.671 433.509 379.671 399.247 388.611L275.037 421.021C232.631 432.085 189.047 407.729 176.248 365.814L173.884 358.07C165.672 331.176 142.877 311.296 115.117 306.817L42.7542 295.14C-2.96587 287.763 -11.2247 225.504 30.9907 206.462L35.2545 204.538C63.3231 191.877 72.3642 156.426 53.7872 131.87C31.8899 102.923 53.5223 61.5468 89.7884 63.0095L249.738 69.4605C275.668 70.5062 301.268 63.365 322.913 49.0488L343.63 35.3461Z" fill="white" stroke="#950002" stroke-width="5" stroke-linejoin="round"/>
</svg>
