<svg width="849" height="440" viewBox="0 0 849 440" fill="none" xmlns="http://www.w3.org/2000/svg">
<path d="M26.7071 103.244C17.833 139.197 19.6079 169.158 46.2301 197.122C72.8523 225.085 26.7071 225.085 17.833 255.046C8.95897 285.007 -10.564 294.994 17.833 322.958C46.2301 350.921 49.7797 366.9 72.8523 368.898C95.9249 370.895 85.276 368.898 182.891 390.869C280.506 412.84 266.307 428.82 371.021 434.812C475.735 440.804 591.098 434.812 587.549 412.84C583.999 390.869 686.938 380.882 724.209 390.869C761.481 400.856 857.321 283.01 844.897 255.046C832.473 227.083 862.645 149.184 830.698 103.244C798.752 57.3042 768.58 69.2885 761.481 33.3354C754.381 -2.61767 690.488 3.37451 690.488 3.37451L513.007 69.2885C513.007 69.2885 452.663 69.2885 410.067 59.3016C367.472 49.3146 410.067 -16.5994 312.452 17.3563C214.838 51.312 95.9249 45.3198 95.9249 45.3198C95.9249 45.3198 35.5812 67.2911 26.7071 103.244Z" stroke="#950002" stroke-width="5" stroke-linejoin="bevel"/>
</svg>
